<?xml version="1.0" standalone="no"?>
<!DOCTYPE svg PUBLIC "-//W3C//DTD SVG 20010904//EN"
 "http://www.w3.org/TR/2001/REC-SVG-20010904/DTD/svg10.dtd">
<svg version="1.0" xmlns="http://www.w3.org/2000/svg"
 width="1024.000000pt" height="1024.000000pt" viewBox="0 0 1024.000000 1024.000000"
 preserveAspectRatio="xMidYMid meet">
<metadata>
Created by potrace 1.16, written by Peter Selinger 2001-2019
</metadata>
<g transform="translate(0.000000,1024.000000) scale(0.100000,-0.100000)"
fill="#000000" stroke="none">
<path d="M3727 7563 c-15 -2 -32 -13 -38 -24 -13 -25 -8 -2347 5 -2368 7 -11
10 -11 17 0 6 10 9 11 9 2 0 -22 18 -14 23 10 l4 22 2 -22 c1 -24 20 -33 22
-10 0 6 4 3 9 -8 8 -19 8 -19 18 5 l11 25 1 -30 c2 -30 2 -30 10 -5 4 14 8
127 9 251 1 124 4 361 8 527 6 284 7 302 25 302 14 0 18 8 18 40 0 33 -3 40
-20 40 -17 0 -20 7 -20 40 0 33 3 40 20 40 17 0 20 7 20 40 0 33 -3 40 -20 40
-18 0 -20 7 -20 80 l0 80 40 0 c39 0 40 1 41 38 1 24 6 9 13 -43 11 -79 11
-78 12 85 0 124 -2 144 -6 80 l-6 -85 -2 101 c-1 56 -5 129 -8 163 -5 41 -3
61 4 61 6 0 13 -17 15 -37 2 -21 3 -9 1 27 -2 36 0 92 5 125 5 35 5 64 0 70
-5 5 -9 19 -9 32 0 13 -5 23 -10 23 -6 0 -10 -10 -9 -22 1 -13 1 -67 1 -120
l-2 -98 -35 0 c-34 0 -35 1 -35 40 0 29 4 40 15 40 11 0 15 11 15 40 0 29 4
40 15 40 12 0 15 17 17 83 1 45 3 65 5 45 4 -36 23 -55 23 -23 0 10 10 15 30
15 25 0 30 -4 30 -25 l0 -25 878 0 c484 0 935 -2 1003 -5 77 -3 113 -1 94 4
l-30 9 33 1 c17 0 32 -4 32 -9 0 -7 118 -10 348 -9 218 1 340 5 327 10 -16 8
-16 8 5 3 46 -11 331 -14 1584 -14 l1246 0 -2 -975 -3 -975 -997 0 c-659 0
-998 3 -998 10 0 7 337 10 990 10 l990 0 0 955 0 955 -1290 0 c-710 0 -1364 1
-1455 1 -91 0 -286 -1 -435 -1 l-270 0 3 -46 c1 -30 -2 -48 -10 -51 -8 -3 -13
5 -13 21 0 14 -5 26 -12 26 -9 0 -9 3 0 12 36 36 28 36 -640 39 -359 2 -675 3
-703 2 -27 0 -169 -2 -315 -3 -236 -4 -252 -5 -145 -11 66 -4 206 -9 310 -12
177 -4 179 -4 30 2 l-160 7 245 2 c309 3 752 -10 635 -19 -68 -4 -58 -6 63 -7
l142 -2 0 -39 c0 -33 -4 -40 -22 -45 -13 -3 15 -3 61 -1 l84 5 -6 -35 c-3 -20
-13 -42 -21 -51 -9 -8 -16 -26 -16 -39 0 -17 -7 -25 -22 -28 -13 -2 -4 -4 20
-4 23 0 42 3 42 8 0 5 -4 9 -10 9 -14 0 -13 20 3 53 10 22 19 27 50 27 34 0
37 2 37 30 0 28 2 30 40 30 l40 0 0 -80 0 -80 40 0 40 0 0 40 0 40 41 0 41 0
-3 88 c-2 60 -7 89 -16 92 -7 3 16 5 52 5 77 0 88 -14 13 -17 l-53 -1 45 -6
c42 -6 45 -8 43 -34 -1 -15 2 -25 8 -22 5 4 9 -4 9 -17 0 -18 -2 -20 -10 -8
-8 13 -10 12 -10 -2 0 -10 5 -18 10 -18 6 0 10 -7 10 -16 0 -8 -4 -12 -10 -9
-6 4 -8 -16 -5 -54 3 -42 12 -71 30 -97 31 -46 34 -89 5 -81 -11 3 -20 3 -20
1 0 -2 9 -19 20 -39 24 -43 25 -58 3 -76 -11 -10 -14 -10 -9 -1 4 6 3 12 -2
12 -11 0 -11 32 0 40 4 3 -2 16 -12 29 l-18 25 1 -32 c1 -18 5 -32 9 -32 5 0
8 -5 8 -11 0 -5 -4 -8 -8 -5 -5 3 -9 -11 -9 -32 0 -23 2 -28 4 -13 4 18 7 21
13 11 5 -8 3 -25 -6 -42 -8 -15 -10 -28 -5 -28 5 0 13 9 16 20 13 40 41 15 30
-27 -4 -19 -9 -23 -18 -14 -6 6 -18 11 -26 11 -11 0 -10 -4 5 -15 42 -29 58
-116 19 -101 -8 3 -15 1 -15 -4 0 -6 4 -10 8 -10 4 0 8 -9 9 -20 1 -12 -4 -20
-13 -20 -11 0 -13 -6 -9 -21 5 -13 3 -19 -3 -15 -6 3 -9 -7 -8 -24 0 -22 5
-29 15 -25 12 5 12 3 1 -10 -12 -14 -22 -71 -11 -60 2 3 10 -3 17 -13 8 -9 14
-12 14 -5 0 6 -4 14 -9 17 -14 9 -7 51 9 51 10 0 14 -9 13 -30 -4 -59 -4 -70
3 -103 6 -30 4 -33 -12 -30 -23 4 -31 37 -12 50 10 8 10 9 -2 5 -24 -6 -24
-37 1 -63 14 -15 18 -24 9 -24 -10 0 -9 -5 3 -18 10 -10 16 -30 15 -44 -2 -21
-5 -24 -19 -15 -13 8 -15 16 -8 34 6 15 5 23 -2 23 -6 0 -9 7 -6 15 4 8 2 17
-3 20 -6 4 -11 -2 -11 -12 -2 -24 -2 -25 7 -47 4 -11 4 -17 -2 -14 -5 4 -9
-17 -9 -47 0 -29 3 -51 8 -48 10 6 9 -5 -2 -26 -6 -11 -6 -22 1 -32 8 -11 9
-11 4 4 -10 31 14 18 31 -17 16 -34 13 -66 -6 -66 -5 0 -12 10 -14 23 l-4 22
-2 -23 c0 -12 6 -25 14 -28 8 -4 12 -10 9 -15 -2 -5 0 -18 6 -30 7 -11 9 -33
5 -47 -6 -24 -8 -25 -17 -8 -5 10 -8 28 -5 42 2 13 0 21 -6 17 -5 -3 -7 -24
-4 -47 4 -27 1 -46 -8 -56 -11 -13 -11 -18 2 -35 15 -20 15 -20 9 2 -8 24 10
41 26 25 16 -16 1 -63 -17 -55 -12 4 -11 -3 5 -30 24 -40 23 -72 0 -72 -10 0
-15 9 -14 28 1 15 -2 27 -6 27 -12 0 -19 -39 -9 -46 5 -3 9 -10 9 -15 0 -6 -5
-7 -11 -4 -6 4 -9 0 -7 -11 2 -13 -4 -20 -19 -22 -19 -3 -23 -10 -23 -43 0
-31 4 -39 18 -39 10 0 23 5 30 10 9 7 9 7 2 -2 -6 -7 -10 -22 -10 -34 0 -13 5
-26 10 -29 6 -3 10 -11 10 -16 0 -6 -5 -7 -10 -4 -7 4 -9 -2 -5 -18 7 -27 -11
-71 -25 -62 -5 3 -11 1 -14 -4 -10 -15 22 -6 42 12 24 22 50 24 32 2 -11 -13
-4 -15 56 -16 57 -2 50 -3 -45 -10 -62 -5 -116 -11 -119 -13 -2 -3 46 -4 109
-2 l114 4 -95 -8 c-91 -7 -291 -5 -374 4 -45 5 -42 2 57 -51 38 -20 90 -55
116 -79 79 -71 102 -127 186 -464 85 -338 160 -676 170 -760 9 -78 -17 -193
-56 -247 l-30 -43 141 0 141 0 -4 168 c-3 92 -8 184 -12 204 -4 21 -4 49 -1
63 6 23 11 25 59 25 71 0 95 8 100 34 3 16 5 15 6 -7 1 -27 3 -28 49 -25 l47
3 -3 45 c-4 56 -20 120 -31 120 -4 0 -14 -11 -21 -25 -21 -39 -22 -23 -5 49 8
37 15 87 15 112 0 40 -2 44 -25 44 -29 0 -30 10 -14 76 6 25 21 51 32 59 18
13 19 22 15 162 -3 81 -9 156 -13 166 -7 16 70 17 1529 17 l1536 0 0 90 0 90
-1577 0 c-1054 0 -1580 3 -1587 10 -7 7 503 9 1577 8 l1587 -3 0 1231 c0 1111
-2 1232 -16 1238 -17 7 -5882 5 -5927 -1z m2813 -617 c46 14 59 12 52 -5 -4
-13 0 -12 18 4 13 11 20 15 17 9 -10 -17 60 -23 83 -7 12 9 21 10 25 3 9 -15
27 -12 20 3 -4 6 0 4 8 -5 18 -23 31 -23 23 -2 -6 14 -4 15 10 4 13 -11 19
-11 36 -1 11 7 17 8 14 2 -9 -13 37 -10 46 4 5 6 8 6 8 -2 0 -7 5 -13 11 -13
5 0 7 5 3 12 -5 7 -3 8 7 2 23 -14 52 -15 61 -2 5 9 8 8 8 -6 0 -15 3 -16 15
-6 11 9 18 10 28 1 8 -6 17 -8 20 -4 10 10 96 9 90 0 -3 -5 3 -5 13 0 11 5 26
9 34 8 8 -1 23 3 34 8 12 6 16 5 12 -1 -8 -13 71 -21 84 -8 6 6 10 6 10 0 0
-5 5 -2 10 6 6 10 10 11 10 3 0 -7 7 -13 15 -13 8 0 15 5 15 10 0 6 5 10 11
10 5 0 7 -5 4 -10 -4 -6 14 -9 49 -8 30 1 58 0 61 -4 4 -3 19 -3 33 1 15 4 63
6 107 5 44 -1 84 1 90 4 15 9 45 9 51 0 8 -13 68 -10 83 5 9 7 11 7 8 1 -4 -7
0 -15 9 -18 8 -3 13 -2 10 2 -6 10 36 8 52 -2 7 -4 12 -3 12 2 0 4 19 6 43 2
31 -4 45 -1 55 10 8 8 11 10 8 4 -4 -8 6 -12 29 -12 19 0 33 3 30 7 -5 9 26 8
42 -2 16 -10 82 -17 87 -9 2 4 34 7 70 6 38 -1 66 3 66 8 0 6 8 4 17 -3 9 -8
14 -9 10 -3 -3 6 0 11 8 11 8 0 12 -4 9 -9 -3 -4 4 -8 15 -8 13 0 21 -7 22
-17 0 -10 2 -26 4 -35 3 -17 0 -20 -27 -22 -7 -1 -16 -5 -20 -11 -5 -6 -8 -5
-8 2 0 10 -114 13 -530 12 -397 -1 -528 -4 -523 -12 5 -9 3 -9 -8 -1 -20 15
-61 16 -53 1 5 -8 3 -8 -7 1 -17 15 -111 16 -127 0 -8 -8 -12 -9 -12 -1 0 8
-59 12 -199 13 -181 1 -201 -1 -211 -17 -10 -16 -11 -16 -6 -1 4 14 0 17 -19
16 -14 -1 -25 -8 -25 -14 0 -6 -9 -14 -20 -17 -11 -3 -20 -10 -20 -16 0 -8 6
-7 20 1 16 10 22 10 33 -5 15 -21 47 -13 47 12 1 13 3 12 12 -4 6 -11 19 -26
27 -33 9 -8 10 -11 4 -7 -8 4 -13 0 -13 -10 0 -10 5 -14 13 -10 6 4 4 0 -6 -8
-18 -15 -18 -15 0 -20 15 -4 -35 -11 -58 -9 -3 1 -28 4 -54 8 -35 4 -46 3 -40
-6 5 -9 3 -9 -11 -2 -11 5 -57 8 -104 6 -92 -5 -95 -5 -157 -4 -40 1 -43 3
-44 28 0 15 -2 37 -5 49 -2 12 1 25 7 28 6 4 9 -1 7 -11 -2 -15 4 -19 30 -20
17 -1 32 3 32 7 0 5 11 4 25 -1 21 -8 25 -6 26 8 1 14 2 14 5 2 4 -12 14 -15
39 -12 20 2 38 8 41 13 12 20 24 8 14 -13 -11 -22 -11 -22 5 -3 21 26 14 40
-21 38 -16 -1 -21 1 -11 4 26 7 21 21 -8 19 -14 0 -25 -5 -25 -9 0 -5 -4 -6
-9 -3 -5 4 -11 2 -13 -4 -1 -5 -8 2 -15 15 -6 14 -7 22 -1 19 6 -4 9 6 8 22
-4 52 -2 54 27 43 15 -5 39 -7 53 -3z m494 -401 c-3 -6 7 -12 21 -13 17 -1 24
2 19 9 -4 8 -1 8 14 0 14 -8 23 -8 27 -1 4 7 11 8 18 2 15 -12 287 -10 306 2
10 6 12 6 7 -2 -10 -16 7 -15 23 1 11 10 13 10 7 0 -5 -10 3 -13 31 -13 25 0
33 3 24 9 -9 6 -10 11 -2 15 6 4 14 0 17 -8 3 -9 10 -13 15 -10 5 3 7 9 5 13
-3 4 1 8 9 8 11 0 12 -4 4 -13 -9 -11 3 -13 62 -13 44 1 77 6 81 12 6 9 8 8 8
-1 0 -7 5 -10 10 -7 13 8 29 -33 22 -57 -5 -19 -17 -20 -244 -18 -83 1 -108
-2 -108 -12 0 -11 -2 -11 -9 0 -6 11 -64 13 -284 10 -153 -2 -277 -1 -277 2 0
12 -76 4 -88 -10 -8 -8 -11 -10 -8 -4 4 8 -17 12 -69 12 -41 0 -79 3 -85 7 -5
3 -10 19 -10 36 0 26 3 29 31 29 21 0 28 4 23 13 -4 6 2 4 13 -6 14 -12 23
-15 28 -7 4 6 16 8 27 4 16 -5 19 -3 12 7 -6 12 -5 12 9 0 14 -11 17 -11 18 0
0 10 2 11 6 2 6 -16 67 -17 94 -3 14 8 19 7 19 -2 0 -9 3 -9 10 2 5 8 10 11
10 5 0 -13 125 -13 137 -1 5 5 3 6 -4 2 -7 -4 -20 -3 -29 2 -12 6 -7 9 19 8
19 -1 33 -5 31 -11z m-374 -146 c0 -5 8 -9 18 -9 14 0 15 2 2 10 -9 6 -10 10
-3 10 6 0 15 -5 18 -10 4 -7 13 -7 26 0 14 8 19 7 19 -1 0 -8 5 -7 17 2 9 8
14 9 10 3 -4 -7 10 -10 41 -10 l47 1 0 -40 0 -40 -59 4 c-41 2 -61 -1 -67 -10
-6 -10 -9 -11 -9 -1 0 13 -42 17 -54 5 -10 -11 -36 -12 -36 -2 0 4 -68 10
-152 11 l-152 3 -1 35 -1 35 86 -1 c47 0 91 -3 98 -8 7 -4 12 -3 12 2 0 5 21
7 46 4 36 -3 45 -1 39 8 -5 8 -4 11 3 6 6 -3 13 -2 17 3 7 12 35 3 35 -10z
m2490 -150 c0 -26 3 -29 35 -29 19 0 35 -4 35 -8 0 -5 10 -13 23 -19 17 -8 30
-7 50 3 19 10 27 11 27 3 0 -6 7 -8 16 -5 9 3 12 2 9 -5 -4 -5 9 -29 28 -53
25 -30 33 -47 26 -57 -15 -24 -10 -36 21 -49 17 -7 30 -20 31 -29 0 -12 2 -11
8 4 5 12 8 -9 7 -54 -2 -64 -5 -76 -24 -89 -26 -17 -29 -59 -7 -88 23 -31 18
-47 -32 -101 -27 -28 -47 -58 -45 -65 3 -14 -77 -78 -97 -78 -6 0 -19 5 -29
11 -11 7 -29 8 -52 2 -28 -8 -34 -14 -33 -31 3 -26 -24 -35 -94 -30 -46 3 -48
5 -45 31 3 27 -1 30 -50 30 -10 0 -18 3 -18 8 0 5 -10 13 -21 20 -13 7 -19 7
-15 1 3 -6 1 -14 -5 -18 -8 -4 -7 -9 2 -16 11 -8 10 -9 -3 -4 -10 3 -20 1 -23
-4 -4 -6 -11 -10 -18 -10 -6 0 1 10 15 21 37 30 27 54 -13 33 -31 -16 -49 -12
-49 10 0 8 -8 20 -17 27 -14 12 -16 12 -8 0 5 -10 4 -12 -4 -7 -6 4 -9 11 -6
16 3 4 -3 16 -13 27 -9 10 -12 12 -7 3 9 -13 8 -13 -7 -1 -14 11 -18 11 -18 1
0 -8 -3 -10 -6 -7 -4 4 -2 12 4 19 6 8 9 30 8 51 -3 32 -1 36 12 25 14 -11 15
-10 8 7 -8 19 -14 42 -15 58 -2 12 -41 8 -41 -5 0 -9 -4 -8 -10 2 -14 22 -13
150 1 150 7 0 18 8 26 18 8 9 11 11 7 3 -5 -9 -3 -12 4 -7 7 4 12 14 12 22 0
9 5 12 12 8 7 -5 9 -2 5 9 -3 9 -1 18 6 21 9 3 9 6 0 13 -15 11 -37 67 -23 58
6 -3 10 -2 10 4 0 5 -4 13 -10 16 -5 3 -10 11 -10 18 0 6 6 3 13 -7 12 -16 14
-16 32 4 15 16 15 20 3 15 -9 -4 -19 -2 -23 4 -3 7 0 8 9 5 8 -3 23 3 34 14
13 13 25 16 40 11 15 -6 20 -4 16 5 -3 7 2 16 10 19 10 4 13 1 9 -9 -3 -9 1
-14 12 -14 9 0 13 4 10 10 -3 5 0 7 8 4 8 -3 20 2 27 11 7 8 21 15 32 15 10 0
17 4 13 9 -3 5 -1 12 5 16 5 3 10 1 10 -4 0 -6 4 -11 9 -11 6 0 8 9 6 20 -4
22 10 28 80 32 56 4 65 0 65 -33z m-2218 -14 c9 0 20 3 24 7 4 4 12 4 18 0 6
-3 42 -7 79 -8 38 -1 70 -4 72 -6 2 -1 5 -16 7 -33 l3 -30 -243 -5 c-133 -3
-242 -3 -242 0 0 3 -22 3 -50 2 l-50 -4 0 41 c0 32 3 39 15 35 8 -4 16 -16 16
-28 2 -20 2 -20 6 2 2 12 10 23 16 23 7 1 23 3 37 4 49 6 201 8 206 3 9 -10
54 4 48 16 -3 6 0 4 8 -4 7 -8 21 -15 30 -15z m-226 -151 c11 3 48 5 84 5 36
0 86 1 113 1 30 1 47 -3 47 -11 0 -9 4 -8 15 1 8 6 19 9 24 6 5 -4 12 -3 14 1
4 6 72 9 72 3 0 0 54 0 120 0 146 0 134 1 225 -4 48 -3 80 0 89 7 12 9 13 9 7
0 -7 -13 6 -13 307 -14 58 0 80 -4 84 -15 3 -8 9 -11 14 -8 5 3 9 0 9 -5 0 -6
-4 -11 -10 -11 -5 0 -7 -7 -4 -15 7 -17 3 -18 -136 -15 -128 2 -83 2 -644 1
-274 -1 -501 0 -503 3 -3 2 -17 1 -32 -4 -26 -7 -27 -6 -24 28 3 43 3 43 48
47 20 2 40 6 43 9 3 4 9 1 13 -5 3 -6 15 -9 25 -5z m111 -144 c20 5 42 6 49 3
16 -6 19 -69 4 -78 -20 -12 -220 -7 -236 6 -12 10 -14 10 -12 0 4 -18 -290
-21 -297 -3 -3 7 0 10 5 7 13 -8 13 1 0 25 -13 24 -6 28 60 31 30 1 60 5 65 8
23 13 32 8 27 -15 -5 -28 13 -33 20 -6 4 14 15 17 57 16 28 -1 53 1 55 5 4 5
25 6 86 2 15 -1 20 -8 20 -31 0 -16 5 -30 10 -30 6 0 10 5 10 11 0 8 5 7 15
-1 13 -11 14 -10 9 4 -3 9 -12 16 -20 16 -19 0 -18 19 1 26 8 4 12 11 9 18 -4
6 1 4 10 -5 14 -13 26 -15 53 -9z m-8 -153 c73 5 80 1 72 -38 l-6 -32 -269 -4
c-281 -4 -297 -2 -276 38 5 9 6 19 3 23 -7 6 -6 7 72 12 75 5 80 5 151 3 36
-1 68 1 71 5 3 3 11 2 17 -3 17 -12 97 -1 90 13 -3 6 0 4 8 -5 10 -12 27 -15
67 -12z m-108 -159 c7 -10 9 -10 9 0 0 10 21 12 88 10 73 -3 87 -6 86 -19 -1
-11 5 -15 17 -12 11 3 19 9 19 13 0 12 90 21 110 10 13 -7 21 -7 25 0 3 5 22
10 40 10 36 0 56 -21 48 -50 -2 -8 9 0 26 18 22 22 40 32 61 32 27 0 30 -3 30
-30 0 -22 5 -30 18 -31 12 0 10 -3 -8 -10 -14 -6 -46 -8 -72 -4 -36 4 -48 2
-49 -7 0 -7 -2 -8 -5 -3 -2 6 -27 8 -55 6 -36 -2 -54 1 -60 10 -5 8 -9 10 -9
4 0 -12 -73 -19 -101 -10 -11 4 -17 11 -14 16 4 5 1 9 -4 9 -6 0 -11 -7 -11
-15 0 -12 -17 -14 -95 -11 -63 2 -95 -1 -95 -8 0 -7 -3 -8 -8 -1 -9 13 -62 16
-62 4 0 -6 -7 -6 -17 -1 -10 5 -77 7 -149 5 l-132 -4 -3 43 -4 43 184 -2 c141
-1 186 -4 192 -15z m-73 -115 c-2 -12 6 -19 27 -23 45 -8 96 0 88 14 -4 7 -1
6 9 -2 11 -9 93 -12 334 -12 176 -1 338 0 362 0 23 1 42 -4 42 -10 0 -5 5 -10
11 -10 5 0 8 4 4 9 -3 5 -1 12 4 15 5 4 12 2 15 -3 4 -5 1 -13 -5 -17 -8 -4
-7 -9 2 -15 10 -6 11 -9 2 -9 -7 0 -13 -5 -13 -11 0 -5 5 -7 12 -3 7 4 8 3 4
-4 -4 -7 -35 -12 -77 -12 -54 0 -68 -3 -63 -12 6 -10 3 -9 -8 0 -20 16 -139
14 -150 -2 -5 -7 -8 -7 -8 2 0 17 -181 15 -192 -2 -6 -8 -8 -7 -8 2 0 6 -8 12
-17 12 -13 0 -14 -3 -5 -12 7 -7 12 -17 12 -22 0 -6 -7 -1 -15 11 -13 18 -24
21 -94 20 -68 0 -78 -2 -74 -16 3 -12 2 -12 -7 2 -12 19 -76 25 -65 6 4 -6 -2
-5 -14 3 -18 11 -23 10 -36 -7 -12 -16 -14 -17 -9 -2 5 13 1 17 -17 17 -17 0
-20 -3 -11 -9 10 -6 10 -10 -1 -20 -12 -9 -15 -8 -13 6 1 17 -12 18 -154 19
-85 1 -160 2 -166 3 -7 1 -10 14 -7 34 3 17 5 41 4 52 0 15 2 17 9 6 4 -8 17
-16 27 -17 9 -2 19 -8 22 -15 2 -7 6 -8 10 -1 7 11 24 15 64 13 21 -1 27 -6
28 -23 l2 -23 4 23 c4 20 10 22 64 22 32 0 58 3 58 8 -3 14 1 32 6 32 3 0 5
-8 3 -17z"/>
<path d="M3960 7263 c0 -12 5 -25 12 -29 8 -5 9 -70 5 -243 -4 -130 -8 -261
-11 -291 -3 -46 -2 -48 4 -15 4 22 7 -50 6 -165 0 -185 -1 -193 -6 -80 l-7
125 4 -130 c16 -601 19 -589 21 96 2 602 0 701 -13 725 -13 26 -15 27 -15 7z"/>
<path d="M4898 6741 c-8 -11 -36 -23 -73 -31 -133 -27 -238 -97 -309 -206 -26
-40 -48 -79 -50 -86 -1 -7 -4 -18 -8 -23 -10 -16 -38 -131 -38 -155 0 -27 -45
-90 -65 -90 -7 0 -29 -18 -49 -41 l-35 -41 21 -42 20 -42 55 7 c30 4 65 14 78
23 24 16 24 15 42 -41 28 -87 38 -76 38 41 0 57 3 107 7 111 3 3 23 -4 45 -18
77 -49 209 -106 259 -113 77 -10 141 15 199 77 26 28 48 49 50 47 5 -5 52
-161 60 -196 5 -27 11 -33 28 -30 20 3 23 11 28 83 6 70 10 82 34 102 52 45
105 3 105 -83 0 -95 -34 -151 -103 -168 -28 -7 -29 -8 -23 -59 3 -29 8 -65 10
-82 6 -32 13 -101 20 -173 2 -23 7 -46 11 -50 9 -9 0 96 -11 123 -7 18 -6 18
9 7 14 -12 17 -10 23 13 3 14 4 29 0 32 -3 4 -6 -5 -6 -18 l-1 -24 -14 25
c-17 30 -19 51 -4 47 6 -1 14 4 17 12 2 8 0 11 -6 7 -20 -12 -22 27 -2 58 19
30 20 30 18 6 -3 -23 1 -25 39 -28 38 -3 42 -1 47 25 3 15 4 40 1 55 -7 35
-24 77 -24 61 -1 -7 -6 -13 -13 -13 -9 0 -9 3 0 13 19 18 34 15 61 -11 15 -15
24 -36 25 -60 1 -48 30 -52 34 -4 3 25 -1 32 -14 32 -14 0 -15 2 -3 17 10 11
10 14 2 9 -8 -4 -13 -1 -13 9 0 10 -5 14 -12 9 -10 -6 -10 -4 0 7 6 7 12 21
12 31 0 10 5 18 10 18 7 0 7 6 1 18 -5 9 -13 26 -17 37 -6 17 -9 15 -23 -17
-9 -21 -20 -38 -24 -38 -13 0 5 195 18 209 3 2 5 -6 5 -18 0 -12 4 -19 10 -16
6 3 10 1 10 -4 0 -6 -5 -11 -11 -11 -15 0 -7 -53 10 -58 8 -3 11 0 7 6 -3 6
-3 37 1 69 6 51 8 54 14 28 6 -29 7 -29 8 8 0 20 -3 37 -9 37 -5 0 -10 8 -10
18 0 14 -2 15 -10 2 -5 -8 -7 -26 -4 -40 4 -20 3 -22 -5 -10 -6 8 -11 40 -12
70 0 30 -4 80 -8 110 -13 92 -12 93 90 87 48 -3 102 -2 119 3 18 5 30 5 30 -1
0 -5 12 -9 28 -8 15 0 21 3 14 6 -6 2 -10 9 -6 14 3 5 -5 9 -18 9 -13 0 -30 6
-39 13 -13 10 1 12 70 10 56 -1 77 1 61 6 -14 5 -44 6 -66 4 -34 -4 -46 -1
-65 18 -15 15 -21 17 -16 6 6 -15 -2 -17 -54 -17 -45 0 -58 3 -53 13 5 8 2 7
-9 -2 -22 -18 -21 -18 37 -25 66 -7 71 -16 8 -16 -32 0 -56 6 -66 16 -21 20
-91 16 -91 -6 0 -11 16 -17 55 -21 l55 -6 -55 1 -55 1 -29 55 c-57 107 -155
185 -277 222 -22 6 -39 15 -39 19 0 37 -89 53 -112 20z"/>
<path d="M1645 5906 c-57 -34 -100 -124 -93 -193 3 -26 9 -55 12 -65 9 -21 -9
-33 -334 -225 -642 -380 -601 -357 -656 -359 -100 -3 -154 -55 -154 -148 0
-62 15 -94 63 -136 27 -24 68 -110 157 -330 21 -52 75 -183 120 -290 185 -441
188 -450 146 -450 -30 0 -42 -15 -51 -62 l-7 -38 340 0 341 0 -6 38 c-3 20
-12 42 -20 49 -22 17 -102 33 -240 47 -67 7 -124 14 -125 17 -30 48 -52 98
-241 554 -208 501 -202 484 -184 514 8 14 18 43 22 64 4 20 11 37 15 37 8 0
422 237 905 519 l90 52 29 -33 c15 -18 49 -54 73 -80 44 -47 46 -51 88 -225
58 -236 93 -346 108 -337 7 4 32 24 57 44 45 37 358 268 435 321 22 15 55 41
74 57 l34 29 -66 47 c-58 41 -334 182 -394 200 -13 4 -23 11 -23 17 0 16 -159
221 -204 262 -10 9 -29 17 -41 17 -15 0 -31 13 -48 39 -49 73 -144 93 -222 47z
m144 -36 c10 -5 24 -24 31 -41 13 -31 12 -33 -21 -62 -19 -17 -52 -46 -73 -65
-43 -38 -42 -27 -9 -137 5 -18 3 -17 -22 5 -92 82 -110 195 -43 268 37 40 97
54 137 32z m-139 -348 c0 -4 -33 -25 -73 -48 -39 -23 -155 -90 -257 -149 -102
-59 -259 -151 -350 -203 -91 -52 -181 -105 -201 -118 l-37 -23 -23 25 c-12 13
-21 26 -18 28 2 2 110 66 239 141 292 171 480 282 590 351 l85 54 23 -26 c12
-14 22 -28 22 -32z m-908 -1004 c161 -379 288 -688 288 -699 0 -5 -12 -9 -27
-9 -27 0 -31 8 -92 153 -146 350 -321 778 -321 786 0 9 16 19 35 20 6 1 58
-113 117 -251z"/>
<path d="M3704 4962 l-541 -2 -26 -24 c-50 -47 -54 -15 97 -899 39 -229 71
-388 81 -403 l15 -24 1330 0 1329 0 20 26 c24 31 26 47 7 63 -14 12 -234 20
-553 21 l-171 0 -7 30 c-4 17 -13 67 -20 113 -70 434 -174 1026 -184 1044 -26
50 -41 52 -452 55 -211 2 -628 2 -925 0z m523 -569 c87 -41 99 -173 21 -227
-27 -19 -104 -20 -136 -2 -37 20 -62 66 -62 116 0 52 18 83 64 111 38 23 67
24 113 2z"/>
<path d="M6812 4333 c-11 -32 -38 -101 -60 -153 -22 -52 -36 -99 -32 -104 5
-5 19 -6 32 -3 20 5 31 27 68 128 25 66 49 132 54 145 11 27 10 29 -20 38 -19
6 -24 0 -42 -51z"/>
<path d="M9085 3380 c-4 -7 -9 -182 -12 -389 -2 -233 -8 -393 -15 -420 -7 -25
-13 -40 -16 -33 -2 7 -7 10 -11 8 -4 -3 -29 17 -56 45 -26 27 -52 49 -57 49
-12 0 6 -31 32 -55 29 -27 51 -70 44 -88 -6 -16 -35 -27 -71 -27 -13 0 -30
-11 -39 -25 -9 -14 -19 -25 -23 -25 -3 0 -17 21 -31 47 -23 43 -50 75 -94 111
-14 11 -15 7 -10 -29 4 -26 2 -39 -4 -35 -5 3 -12 -12 -16 -34 -7 -45 -17 -50
-35 -17 -9 17 -9 35 0 77 18 88 18 90 -33 125 -88 61 -261 98 -296 63 -18 -18
-15 -70 8 -130 24 -63 104 -168 129 -168 10 0 37 -15 60 -32 100 -77 104 -79
148 -77 39 3 44 0 71 -37 41 -57 132 -211 132 -224 0 -5 4 -10 9 -10 5 0 19
-20 31 -45 l22 -45 82 0 82 0 2 48 c1 26 11 96 21 156 16 85 25 115 44 135 21
21 23 30 15 51 -16 41 6 89 77 168 36 40 65 77 65 82 0 5 -5 20 -12 34 -10 23
-8 29 24 58 45 44 101 115 123 158 l18 34 -32 26 c-44 37 -41 54 8 46 l38 -6
47 70 c54 82 77 150 57 174 -38 45 -131 -2 -195 -98 -37 -55 -73 -77 -62 -36
18 63 16 63 -43 0 -34 -36 -71 -80 -83 -97 -23 -33 -40 -38 -94 -27 l-29 5 3
216 c3 201 -3 256 -23 223z"/>
<path d="M5968 3354 l-3 -26 -580 -2 -580 -1 -3 -31 -3 -31 -242 -7 c-403 -12
-538 -27 -632 -72 -46 -22 -115 -93 -136 -141 -43 -94 -41 -108 96 -787 69
-346 132 -656 140 -688 7 -32 11 -67 8 -78 -10 -39 8 -130 32 -157 21 -25 27
-27 94 -25 l72 3 -6 -38 c-4 -21 -9 -46 -12 -55 -3 -14 2 -18 25 -18 78 0 123
-44 84 -82 -18 -19 -21 -19 -45 -4 -22 15 -87 39 -87 32 0 -2 11 -15 25 -30
14 -15 25 -31 25 -37 0 -13 -54 -11 -85 3 -27 12 -32 27 -13 46 10 10 6 10
-20 1 -30 -10 -62 -42 -62 -61 0 -5 11 -8 24 -8 37 0 88 -20 128 -51 31 -25
46 -29 96 -29 l59 0 31 63 c24 48 41 68 71 85 61 34 81 65 70 105 -16 57 -11
82 22 106 31 23 31 25 26 88 -3 42 -12 75 -24 92 -17 22 -82 328 -159 744 -4
20 -2 27 11 27 9 0 13 5 10 10 -3 6 -1 10 4 10 6 0 11 -4 11 -8 0 -4 9 -8 19
-8 11 0 17 5 14 10 -4 5 1 7 10 3 11 -4 17 -1 17 8 0 21 37 19 49 -2 6 -10 11
-13 11 -8 0 6 5 3 10 -5 8 -13 10 -12 10 3 0 14 5 17 20 12 12 -4 29 -1 38 6
14 11 15 11 5 -1 -18 -20 -16 -35 2 -20 12 10 15 10 15 -1 0 -11 2 -11 10 1 9
13 11 13 20 0 9 -13 10 -13 10 0 0 13 1 13 10 0 9 -13 10 -13 10 0 0 12 2 13
9 1 7 -11 9 -11 14 0 4 12 7 11 16 -1 9 -13 11 -13 11 1 0 9 8 23 18 30 14 11
15 11 5 0 -6 -7 -9 -20 -6 -28 5 -11 10 -8 19 13 9 20 12 22 8 7 -3 -13 -1
-23 5 -23 6 0 11 6 12 13 0 6 4 3 9 -8 8 -19 9 -19 9 3 1 12 -4 22 -10 22 -5
0 -7 5 -3 12 5 8 12 2 20 -17 l13 -30 1 30 c0 23 3 27 10 15 9 -13 10 -13 11
0 1 8 7 -3 14 -25 8 -22 14 -32 14 -22 1 11 9 17 24 16 16 -1 18 -2 5 -6 -10
-2 -18 -9 -18 -15 0 -5 6 -8 13 -5 8 3 13 -3 13 -14 0 -11 -6 -19 -13 -19 -26
0 -28 -13 -73 -385 -5 -44 -14 -127 -21 -185 -7 -68 -18 -116 -30 -136 -14
-23 -19 -50 -19 -101 0 -93 21 -123 85 -123 80 0 89 -13 55 -80 l-20 -40 35 0
c83 0 130 -45 87 -83 -16 -15 -20 -15 -47 3 -17 11 -41 20 -54 20 l-24 0 21
-23 c43 -46 22 -66 -44 -41 -36 14 -44 21 -41 36 4 15 1 18 -16 12 -11 -4 -29
-16 -38 -28 -17 -21 -17 -21 44 -39 34 -10 79 -32 99 -48 31 -24 46 -29 95
-29 l58 0 27 59 c21 49 35 66 74 90 27 16 55 39 62 50 22 36 39 25 53 -36 11
-47 18 -59 37 -61 29 -4 30 -44 2 -79 -29 -38 -28 -135 3 -180 12 -18 25 -33
30 -33 4 0 7 -5 7 -10 0 -7 -412 -10 -1255 -10 l-1256 1 21 26 c18 23 20 40
20 167 0 181 -7 208 -64 235 -42 21 -53 21 -740 21 -745 -1 -750 -1 -776 -49
-12 -23 -14 -344 -2 -337 4 2 7 -10 6 -27 l-1 -32 -189 -2 c-104 -1 -343 -3
-531 -3 -335 0 -342 0 -348 -20 -4 -12 -1 -27 5 -35 19 -22 9431 -22 9450 0 6
8 9 23 5 35 -6 20 -11 20 -688 22 -375 1 -1026 1 -1447 1 -421 -1 -756 2 -745
6 15 6 5 10 -40 15 -102 11 -132 23 -143 55 -12 35 -6 71 16 89 9 6 39 12 66
12 51 0 78 10 77 26 -1 5 52 10 116 11 133 3 278 10 370 18 37 3 64 1 68 -5 3
-5 25 -10 48 -10 31 0 38 3 27 10 -11 7 -5 10 25 12 22 1 -59 5 -180 9 -207 5
-202 6 99 5 l318 -1 -1 148 c-2 116 1 147 11 145 7 -2 12 3 10 10 -1 9 42 12
191 12 l193 0 31 33 c39 40 53 75 53 135 0 99 -61 162 -159 163 -45 0 -52 2
-32 10 17 7 21 14 16 27 -4 9 -9 43 -12 76 -5 48 -3 60 10 68 10 5 17 21 17
39 l0 30 -436 -3 -436 -3 -33 -37 c-45 -49 -54 -97 -26 -143 12 -20 21 -40 21
-46 0 -5 -34 -9 -76 -9 -89 0 -135 -20 -173 -75 -45 -66 -37 -165 19 -229 17
-18 30 -36 30 -40 0 -3 -17 -4 -37 -2 -57 7 -127 -12 -156 -42 -56 -59 -58
-167 -5 -228 23 -26 38 -34 65 -34 58 0 15 -29 -49 -33 -143 -8 -198 -100
-116 -193 l31 -35 -137 2 c-75 1 -136 5 -136 9 0 4 7 13 16 21 43 35 55 101
30 166 -8 21 -17 50 -20 65 -14 65 -232 144 -581 213 -71 14 -140 28 -152 30
-22 5 -23 8 -25 208 l-3 202 -28 3 -27 3 0 310 c1 238 4 308 13 302 17 -11 81
-10 90 2 4 6 10 5 16 -4 7 -11 10 -11 15 0 5 12 7 12 12 1 5 -10 10 -8 21 7 8
12 24 26 36 32 l22 12 -22 -25 c-13 -13 -23 -28 -23 -34 0 -5 5 -2 10 6 9 13
11 13 20 0 8 -13 10 -12 10 3 0 9 5 17 11 17 5 0 7 4 4 10 -4 6 4 6 21 0 21
-8 29 -8 36 2 4 7 8 9 8 4 0 -5 7 -3 15 4 13 11 14 10 8 -6 -6 -17 -5 -17 10
-5 19 15 23 1 5 -17 -6 -6 -8 -15 -5 -19 4 -4 15 3 23 16 l16 22 18 -21 c18
-20 36 -28 25 -10 -3 6 -1 10 4 10 6 0 11 -6 11 -12 0 -9 4 -8 10 2 9 13 11
13 20 0 5 -8 10 -10 10 -4 0 7 11 11 25 10 14 0 25 -5 25 -10 0 -5 3 -6 6 -3
4 4 1 13 -5 21 -9 11 -19 13 -37 5 -17 -6 -23 -6 -19 1 3 6 13 10 21 10 8 0
14 6 14 13 0 6 5 4 11 -6 8 -14 18 -17 37 -13 15 3 22 3 15 0 -7 -3 -9 -12 -6
-20 5 -13 7 -13 15 -2 7 10 11 10 14 1 4 -10 8 -10 19 0 7 7 10 16 7 21 -3 5
1 6 8 1 10 -6 12 -4 6 10 -7 18 -6 18 14 0 12 -11 20 -13 20 -6 0 7 5 9 11 5
14 -8 -9 -24 -26 -18 -7 3 -15 -2 -19 -12 -5 -14 -4 -15 9 -4 12 10 15 10 15
-1 0 -11 2 -11 10 1 8 12 12 13 19 2 7 -11 9 -10 14 3 4 9 3 13 -3 10 -6 -4
-7 1 -3 11 5 15 7 15 15 0 5 -9 6 -22 2 -29 -5 -7 -1 -6 10 2 14 12 19 12 26
2 6 -11 9 -11 13 0 4 12 7 11 16 -1 6 -8 11 -10 11 -5 0 6 18 11 40 12 37 2
100 27 100 39 0 3 -5 2 -12 -2 -7 -4 -8 -3 -4 4 4 6 13 9 21 6 19 -8 72 68 90
129 8 28 15 84 15 125 0 69 -2 76 -29 101 l-30 28 64 -1 c104 -2 99 -18 103
339 l3 305 -390 0 -390 0 -3 -26z m2026 -1525 c9 -46 7 -88 -4 -110 -10 -18
-25 -19 -391 -19 l-380 0 -24 25 c-33 32 -34 86 -3 115 21 19 33 20 409 20
l387 0 6 -31z m-979 -263 l7 -44 37 5 c20 2 59 9 86 15 75 15 714 23 728 9 8
-8 0 -11 -28 -11 -407 1 -719 -14 -822 -39 -2 -1 -3 -21 -3 -46 0 -41 -2 -45
-25 -45 -33 0 -45 27 -45 104 0 56 3 67 22 80 32 23 36 21 43 -28z m624 -391
l2 -85 -253 0 c-139 0 -258 4 -264 8 -34 22 -42 74 -20 127 l15 35 259 0 260
0 1 -85z m-1824 -90 c79 -15 358 -76 362 -79 1 -1 -5 -23 -14 -49 -20 -60 -11
-107 29 -152 l30 -35 -305 0 c-168 0 -312 2 -320 6 -11 4 -8 12 14 35 52 56
51 144 -3 205 -45 51 -32 67 58 75 38 3 69 6 69 7 0 1 36 -5 80 -13z m-4297
-42 c1 -104 -1 -99 37 -95 19 2 35 8 35 12 0 4 -11 5 -24 3 -28 -6 -43 22 -23
42 12 11 16 10 27 -6 11 -14 16 -15 22 -6 5 7 8 2 8 -15 0 -16 3 -28 8 -28 4
0 6 20 4 45 -3 28 0 45 7 45 6 0 11 -18 11 -42 0 -50 16 -41 23 12 4 33 4 32
5 -9 l2 -43 48 6 c91 12 703 19 714 8 6 -6 -97 -11 -309 -15 -188 -3 -373 -12
-453 -21 -74 -9 -136 -16 -137 -16 -2 0 -3 -25 -3 -55 0 -49 -2 -55 -21 -55
-39 0 -52 27 -56 112 -3 79 -3 80 31 114 19 19 36 34 39 34 2 0 4 -12 5 -27z"/>
<path d="M9695 2761 c-8 -16 -21 -35 -28 -43 -47 -47 -357 -488 -357 -509 0
-5 -5 -9 -11 -9 -5 0 -7 5 -3 11 10 16 4 223 -7 234 -6 6 -8 -43 -7 -132 3
-116 0 -144 -13 -159 -8 -11 -31 -46 -50 -79 -19 -33 -43 -72 -53 -87 -15 -23
-16 -28 -4 -28 8 0 45 50 83 111 119 195 259 401 413 608 34 46 62 90 62 97 0
22 -8 17 -25 -15z"/>
<path d="M995 2001 c-110 -16 -135 -50 -135 -185 1 -85 7 -101 50 -128 38 -25
79 -27 595 -31 264 -2 446 -1 405 3 l-75 6 88 2 c83 2 90 4 118 31 28 28 29
33 29 123 0 99 -16 144 -58 167 -24 13 -941 24 -1017 12z m710 -69 c6 -4 11
-44 13 -89 l3 -83 -380 0 -380 0 -6 33 c-4 17 -5 55 -3 82 l3 50 325 5 c179 3
345 6 370 8 25 1 50 -2 55 -6z m280 -67 c4 -30 4 -66 1 -80 -5 -21 -12 -25
-46 -25 -34 0 -42 4 -55 30 -36 70 -8 130 62 130 31 0 32 -1 38 -55z"/>
<path d="M3113 1543 c-7 -2 -13 -10 -13 -17 0 -9 15 -12 48 -11 26 1 140 2
255 3 176 2 207 4 207 17 0 13 -33 15 -242 14 -134 0 -249 -3 -255 -6z"/>
<path d="M1602 1508 c-17 -17 -15 -45 4 -52 9 -3 110 -6 224 -6 194 0 210 1
219 19 8 14 6 22 -8 35 -15 14 -47 16 -222 16 -146 0 -208 -3 -217 -12z"/>
<path d="M1595 1379 c-4 -5 -4 -21 -1 -35 l6 -24 214 0 c200 0 214 1 231 20
15 16 15 22 5 35 -10 13 -48 15 -231 15 -142 0 -220 -4 -224 -11z"/>
</g>
</svg>
