<?xml version="1.0" standalone="no"?>
<!DOCTYPE svg PUBLIC "-//W3C//DTD SVG 20010904//EN"
 "http://www.w3.org/TR/2001/REC-SVG-20010904/DTD/svg10.dtd">
<svg version="1.0" xmlns="http://www.w3.org/2000/svg"
 width="1024.000000pt" height="1024.000000pt" viewBox="0 0 1024.000000 1024.000000"
 preserveAspectRatio="xMidYMid meet">

<g transform="translate(0.000000,1024.000000) scale(0.100000,-0.100000)"
fill="#000000" stroke="none">
<path d="M0 7100 c0 -1727 2 -3140 5 -3140 2 0 55 20 117 44 62 25 190 75 283
112 94 36 242 93 330 124 88 32 184 67 213 79 29 12 60 21 70 20 11 0 8 -4 -8
-8 -14 -5 -88 -33 -165 -63 -116 -46 -549 -212 -787 -301 l-58 -22 0 -302 c0
-229 3 -303 12 -303 9 0 9 -3 0 -12 -9 -9 -12 -394 -12 -1670 l0 -1658 5120 0
5120 0 0 5120 0 5120 -5120 0 -5120 0 0 -3140z m4975 2289 c264 -67 568 -143
675 -169 542 -135 1461 -364 1580 -395 98 -25 1054 -263 1410 -351 439 -108
817 -207 848 -223 52 -26 98 -83 118 -145 19 -57 16 -215 -10 -561 -9 -104
-20 -289 -26 -410 -13 -278 -47 -826 -60 -970 -5 -60 -14 -202 -20 -315 -13
-269 -24 -447 -60 -960 -16 -234 -34 -508 -40 -610 -6 -102 -17 -266 -25 -365
-9 -99 -18 -214 -21 -255 -10 -118 -36 -191 -90 -244 -41 -40 -97 -67 -111
-53 -3 3 13 17 35 31 22 14 52 40 66 59 54 71 59 106 91 712 8 160 21 364 29
455 8 91 17 224 21 295 3 72 10 193 15 270 5 77 14 244 20 370 6 127 13 250
15 275 11 117 45 655 75 1180 12 195 30 498 41 673 10 174 16 330 13 345 -17
71 -67 142 -117 168 -21 11 -3279 833 -4297 1084 -63 15 -251 63 -417 105
l-302 77 -38 -19 c-20 -10 -39 -24 -41 -31 -3 -11 0 -12 16 -3 31 16 79 13
168 -10 397 -104 1438 -367 3444 -870 767 -192 1414 -357 1438 -366 24 -9 48
-26 54 -37 12 -21 13 -142 3 -271 -3 -38 -12 -155 -20 -260 -8 -104 -19 -280
-25 -390 -19 -341 -49 -844 -60 -980 -5 -71 -15 -213 -20 -315 -6 -102 -20
-331 -31 -510 -11 -179 -26 -440 -34 -580 -8 -140 -19 -307 -25 -370 -5 -63
-14 -200 -20 -305 -28 -503 -39 -588 -84 -633 -39 -40 -89 -39 -200 3 -93 34
-99 35 -111 18 -7 -10 -45 -40 -84 -66 l-70 -49 -208 82 c-114 45 -311 122
-438 172 -126 50 -255 100 -285 112 -30 11 -57 21 -59 23 -2 1 10 15 27 31 23
21 34 44 43 90 7 34 16 62 20 62 7 0 192 -71 379 -145 47 -19 175 -69 285
-111 110 -41 214 -84 231 -95 38 -23 45 -24 38 -4 -4 9 -1 15 7 15 12 0 33
-11 129 -69 33 -20 181 -71 205 -71 87 0 108 62 125 365 6 105 17 276 25 380
8 105 17 260 20 345 3 85 12 236 20 335 8 99 19 263 25 365 6 102 15 250 20
330 5 80 14 235 20 345 5 110 14 252 20 315 12 133 45 655 60 945 6 110 15
250 20 310 19 232 33 512 26 538 -9 36 -51 61 -139 82 -119 28 -2558 638
-3027 756 -239 61 -487 123 -550 139 -63 16 -347 88 -630 159 -283 72 -555
141 -603 153 l-88 22 -37 -19 c-69 -37 -68 -34 -92 -600 -11 -280 -25 -573
-30 -650 -5 -77 -17 -288 -25 -470 -16 -333 -29 -592 -65 -1230 -32 -594 -33
-598 -21 -643 18 -64 53 -99 124 -121 132 -42 297 -101 407 -146 63 -26 158
-63 210 -81 160 -56 400 -150 412 -162 20 -20 1 -24 -34 -9 -18 9 -125 52
-238 96 -113 44 -287 112 -387 151 -183 72 -214 78 -228 43 -5 -15 -4 -15 14
1 18 17 21 16 71 -9 50 -25 90 -41 320 -124 180 -65 174 -59 137 -134 l-24
-46 26 -10 c14 -6 83 -31 154 -57 70 -25 127 -50 127 -55 0 -16 -25 -10 -221
61 -198 72 -237 87 -534 206 -312 124 -340 135 -370 148 -76 34 -144 47 -188
35 -23 -6 -47 -15 -54 -20 -7 -7 -14 -6 -18 1 -9 14 38 31 110 40 33 4 81 16
107 26 42 16 53 17 90 5 108 -32 127 -35 142 -21 22 18 13 26 -45 40 -55 13
-102 47 -124 90 -26 50 -27 130 -6 485 12 193 28 490 36 660 29 608 45 922 55
1085 6 91 17 343 25 560 8 217 19 491 24 609 l10 214 33 66 c38 75 76 101 148
101 25 0 261 -54 525 -121z m-2202 34 c29 -15 87 -87 87 -110 0 -7 4 -13 9
-13 17 0 71 -58 71 -77 -1 -17 -2 -17 -15 2 -43 61 -99 74 -149 34 -14 -11
-26 -16 -26 -10 0 14 60 51 83 51 21 0 21 3 2 41 -19 37 -90 89 -121 89 -13 0
-26 4 -29 10 -8 13 51 2 88 -17z m-116 11 c-3 -3 -12 -4 -19 -1 -8 3 -5 6 6 6
11 1 17 -2 13 -5z m-85 -41 c-28 -21 -63 -57 -78 -80 -15 -24 -28 -43 -30 -43
-24 0 65 114 109 141 53 32 53 21 -1 -18z m140 -2 c24 -10 95 -71 82 -71 -4 0
-21 12 -37 28 -25 24 -36 27 -93 27 -60 0 -63 1 -37 12 34 15 55 16 85 4z
m1836 -324 c4 -20 -25 -34 -40 -19 -15 15 -1 44 19 40 10 -2 19 -11 21 -21z
m-1577 -11 c183 -39 282 -144 308 -326 14 -97 31 -326 31 -415 0 -155 -71
-225 -275 -270 -60 -14 -106 -16 -209 -12 -141 5 -210 21 -270 62 -59 40 -41
8 39 -68 92 -87 106 -123 76 -192 -15 -33 -33 -53 -75 -80 -52 -33 -206 -108
-206 -100 0 2 41 25 91 51 115 61 165 104 180 154 17 56 0 89 -82 162 -63 56
-71 67 -90 130 -11 38 -18 75 -15 81 2 7 5 3 5 -9 1 -11 7 -29 15 -39 13 -18
14 -18 24 1 14 27 93 69 167 88 84 23 273 31 365 17 41 -7 106 -26 144 -43 66
-31 69 -31 82 -13 17 22 17 62 4 255 -24 350 -56 428 -205 500 -178 87 -399
57 -525 -69 -41 -41 -48 -45 -33 -20 53 91 205 163 353 168 19 0 65 -6 101
-13z m1727 -29 c3 -22 -1 -27 -17 -27 -15 0 -21 6 -21 23 0 46 33 49 38 4z
m160 -36 c-3 -29 -25 -34 -41 -9 -8 12 -7 21 2 32 19 22 43 8 39 -23z m-1934
-42 c-3 -5 -10 -7 -15 -3 -5 3 -7 10 -3 15 3 5 10 7 15 3 5 -3 7 -10 3 -15z
m-567 -31 c-3 -8 -6 -5 -6 6 -1 11 2 17 5 13 3 -3 4 -12 1 -19z m400 0 c-3 -8
-6 -5 -6 6 -1 11 2 17 5 13 3 -3 4 -12 1 -19z m1903 -78 c107 -27 260 -66 340
-87 79 -20 139 -38 133 -40 -9 -3 -334 77 -606 150 -21 5 -41 7 -44 3 -4 -4
-13 -149 -19 -324 -20 -503 -43 -1049 -48 -1142 -3 -47 -7 -148 -8 -224 l-3
-139 75 -24 c216 -67 416 -128 502 -153 88 -26 146 -49 124 -50 -14 0 -496
145 -608 183 l-97 33 -5 -31 c-3 -16 -15 -192 -26 -390 -10 -198 -22 -403 -25
-456 -5 -73 -3 -98 7 -106 13 -10 237 -89 796 -278 167 -57 306 -106 310 -109
3 -3 2 -9 -2 -13 -3 -4 -34 4 -69 17 -97 36 -810 286 -927 325 -58 19 -111 39
-119 44 -11 7 -13 34 -8 143 3 73 11 237 16 363 6 127 18 298 26 380 14 140
22 322 60 1295 17 438 28 680 29 680 1 0 89 -23 196 -50z m833 -229 c83 -22
238 -62 342 -90 218 -57 455 -118 735 -190 107 -27 301 -77 430 -111 129 -34
294 -77 365 -95 195 -50 439 -116 444 -121 10 -10 -32 -2 -139 27 -171 46
-449 120 -675 178 -110 29 -234 61 -275 72 -41 11 -232 60 -425 109 -192 49
-399 102 -460 119 -60 16 -200 53 -310 81 -110 28 -202 53 -204 56 -10 10 27
2 172 -35z m-648 -85 c256 -66 258 -67 252 -72 -5 -6 -488 116 -507 128 -23
14 12 7 255 -56z m1696 -25 c329 -84 553 -143 779 -206 74 -20 218 -59 320
-85 102 -27 239 -64 305 -84 66 -19 180 -52 252 -72 73 -21 131 -40 128 -42
-4 -4 -147 33 -260 68 -116 36 -300 85 -880 234 -602 155 -975 258 -975 268 0
5 4 7 8 4 5 -3 150 -41 323 -85z m-1181 8 c0 -14 -17 -10 -23 5 -4 10 -1 13 9
9 7 -3 14 -9 14 -14z m113 -10 c26 -6 47 -15 47 -20 0 -11 -17 -12 -24 -1 -3
5 -15 8 -28 7 -13 -1 -29 2 -35 7 -7 6 -20 8 -28 4 -9 -3 -15 0 -15 10 0 10 6
14 18 10 9 -3 38 -10 65 -17z m-576 -77 c207 -54 262 -70 231 -71 -9 -1 -140
31 -291 69 -150 39 -277 70 -280 70 -4 0 -7 4 -7 9 0 9 50 -2 347 -77z m697
51 c4 -4 13 -8 19 -8 29 -1 77 -17 77 -26 0 -15 -50 -5 -61 12 -6 10 -9 11 -9
1 0 -8 -5 -10 -12 -5 -13 8 -18 9 -38 12 -5 0 -10 6 -10 11 0 12 23 13 34 3z
m126 -38 c0 -8 -4 -15 -10 -15 -5 0 -10 7 -10 15 0 8 5 15 10 15 6 0 10 -7 10
-15z m-260 -20 c0 -8 -2 -15 -4 -15 -2 0 -6 7 -10 15 -3 8 -1 15 4 15 6 0 10
-7 10 -15z m290 5 c0 -5 -5 -10 -11 -10 -5 0 -7 5 -4 10 3 6 8 10 11 10 2 0 4
-4 4 -10z m893 -17 c27 -8 47 -17 45 -18 -3 -4 -134 31 -153 40 -20 9 61 -7
108 -22z m-1858 -44 c334 -86 346 -89 295 -84 -25 3 -101 21 -170 39 -69 19
-178 46 -242 61 -65 15 -118 31 -118 35 0 10 -12 12 235 -51z m1102 19 c-3 -8
-6 -5 -6 6 -1 11 2 17 5 13 3 -3 4 -12 1 -19z m82 -4 c12 8 15 -6 5 -17 -10
-10 -45 13 -38 25 4 7 9 6 14 -2 4 -7 13 -9 19 -6z m-3910 2 c-2 -2 -29 -6
-59 -9 -36 -4 -46 -3 -30 3 25 8 97 13 89 6z m-161 -44 c-63 -36 -98 -85 -98
-135 0 -25 -4 -36 -11 -31 -15 9 -5 78 16 110 18 29 101 84 124 84 9 0 -5 -13
-31 -28z m3557 8 c3 -5 1 -10 -4 -10 -6 0 -11 5 -11 10 0 6 2 10 4 10 3 0 8
-4 11 -10z m70 -9 c3 -5 1 -12 -5 -16 -5 -3 -10 1 -10 9 0 18 6 21 15 7z m45
-11 c8 -5 11 -10 5 -10 -5 0 -17 5 -25 10 -8 5 -10 10 -5 10 6 0 17 -5 25 -10z
m-837 -17 c-7 -2 -19 -2 -25 0 -7 3 -2 5 12 5 14 0 19 -2 13 -5z m892 -2 c3
-6 -3 -9 -14 -8 -11 0 -17 5 -15 9 7 11 22 10 29 -1z m68 -18 c-7 -2 -19 -2
-25 0 -7 3 -2 5 12 5 14 0 19 -2 13 -5z m72 -13 c3 -5 -1 -10 -9 -10 -9 0 -16
5 -16 10 0 6 4 10 9 10 6 0 13 -4 16 -10z m119 -29 c4 -5 -3 -7 -14 -4 -23 6
-26 13 -6 13 8 0 17 -4 20 -9z m-284 -11 c12 -8 11 -10 -7 -10 -13 0 -23 5
-23 10 0 13 11 13 30 0z m330 -10 c0 -5 -4 -10 -10 -10 -5 0 -10 5 -10 10 0 6
5 10 10 10 6 0 10 -4 10 -10z m-290 -10 c0 -5 -2 -10 -4 -10 -3 0 -8 5 -11 10
-3 6 -1 10 4 10 6 0 11 -4 11 -10z m-1033 -6 c-3 -3 -12 -4 -19 -1 -8 3 -5 6
6 6 11 1 17 -2 13 -5z m1138 -15 c11 -11 0 -11 -44 -3 -17 4 -31 10 -31 15 0
10 61 0 75 -12z m-1098 5 c-3 -3 -12 -4 -19 -1 -8 3 -5 6 6 6 11 1 17 -2 13
-5z m40 -10 c-3 -3 -12 -4 -19 -1 -8 3 -5 6 6 6 11 1 17 -2 13 -5z m1453 -4
c0 -5 -7 -7 -15 -4 -8 4 -15 8 -15 10 0 2 7 4 15 4 8 0 15 -4 15 -10z m-544
-35 c18 -13 18 -14 -4 -8 -12 3 -25 9 -28 14 -8 14 10 11 32 -6z m49 -23 c-8
-8 -25 10 -19 20 4 6 9 5 15 -3 4 -7 6 -15 4 -17z m2509 12 c62 -17 94 -34 64
-34 -20 0 -148 39 -148 45 0 9 22 5 84 -11z m-2454 -14 c0 -5 -7 -10 -15 -10
-8 0 -15 5 -15 10 0 6 7 10 15 10 8 0 15 -4 15 -10z m670 0 c0 -5 -5 -10 -11
-10 -5 0 -7 5 -4 10 3 6 8 10 11 10 2 0 4 -4 4 -10z m38 -2 c-2 -6 -10 -14
-16 -16 -7 -2 -10 2 -6 12 7 18 28 22 22 4z m-1832 -16 c-10 -2 -22 0 -28 6
-6 6 0 7 19 4 21 -5 23 -7 9 -10z m1211 -19 c-8 -7 -37 9 -31 19 3 5 12 4 20
-3 8 -6 13 -14 11 -16z m653 23 c0 -3 -4 -8 -10 -11 -5 -3 -10 -1 -10 4 0 6 5
11 10 11 6 0 10 -2 10 -4z m60 -5 c0 -6 -4 -13 -10 -16 -5 -3 -10 -2 -10 4 0
6 -7 8 -15 5 -8 -4 -15 -1 -15 5 0 6 11 11 25 11 14 0 25 -4 25 -9z m50 -22
c0 -4 -9 -7 -20 -6 -11 1 -20 7 -20 13 0 7 8 10 20 7 11 -3 20 -9 20 -14z
m1817 5 c-3 -3 -12 -4 -19 -1 -8 3 -5 6 6 6 11 1 17 -2 13 -5z m-2772 -18 c18
-13 18 -14 -8 -9 -15 3 -27 9 -27 14 0 13 13 11 35 -5z m290 3 c11 -17 -1 -21
-15 -4 -8 9 -8 15 -2 15 6 0 14 -5 17 -11z m775 -19 c0 -5 -4 -10 -10 -10 -5
0 -10 5 -10 10 0 6 5 10 10 10 6 0 10 -4 10 -10z m-4690 -10 c-8 -5 -19 -10
-25 -10 -5 0 -3 5 5 10 8 5 20 10 25 10 6 0 3 -5 -5 -10z m3735 0 c19 -8 19
-9 -2 -9 -12 -1 -25 4 -28 9 -7 12 2 12 30 0z m2911 -17 c20 -8 17 -23 -5 -23
-24 0 -83 20 -96 33 -10 9 71 2 101 -10z m-3878 -54 c108 -29 199 -53 201 -55
2 -2 2 -7 -1 -10 -12 -11 -408 92 -408 107 0 13 -9 14 208 -42z m3722 12 c128
-33 397 -103 593 -155 70 -18 130 -36 134 -40 12 -11 -12 -6 -143 30 -129 35
-266 71 -548 144 -81 21 -151 41 -154 44 -8 9 -7 8 118 -23z m-2895 9 c3 -5 1
-10 -4 -10 -6 0 -11 5 -11 10 0 6 2 10 4 10 3 0 8 -4 11 -10z m2282 4 c-3 -3
-12 -4 -19 -1 -8 3 -5 6 6 6 11 1 17 -2 13 -5z m-2462 -14 c3 -5 1 -10 -4 -10
-6 0 -11 5 -11 10 0 6 2 10 4 10 3 0 8 -4 11 -10z m250 -12 c6 -6 0 -8 -19 -6
-16 2 -31 9 -34 17 -3 10 2 11 19 6 13 -4 29 -12 34 -17z m2330 -2 c50 -13
151 -39 225 -59 74 -20 203 -54 286 -76 84 -22 176 -47 205 -55 30 -9 110 -29
179 -45 174 -41 326 -84 311 -89 -7 -2 -81 14 -164 37 -376 101 -714 190 -736
193 -29 4 -27 15 -35 -232 -7 -222 -24 -547 -36 -700 -14 -177 -45 -753 -56
-1040 -2 -74 -9 -211 -14 -305 -11 -190 -17 -336 -25 -535 -10 -252 -35 -486
-35 -329 0 73 17 394 30 554 5 72 17 290 26 485 18 418 41 853 54 1035 8 117
28 521 46 921 l6 152 -63 20 c-35 11 -111 32 -168 47 -102 26 -155 43 -136 44
6 0 51 -10 100 -23z m813 7 c32 -9 51 -18 43 -21 -18 -6 -119 17 -126 29 -9
14 20 11 83 -8z m757 -105 c-4 -68 -13 -184 -20 -258 -8 -74 -22 -279 -30
-455 -17 -353 -38 -695 -55 -880 -6 -66 -17 -244 -25 -395 -31 -563 -45 -786
-50 -820 -3 -19 -10 -118 -15 -220 -5 -102 -14 -248 -20 -325 -6 -77 -17 -264
-25 -415 -14 -268 -36 -469 -43 -389 -2 20 6 178 17 350 34 525 49 762 66
1039 8 146 20 333 26 415 5 83 16 269 24 415 12 241 28 487 55 875 5 77 14
228 20 335 6 107 20 326 31 485 11 160 19 307 19 328 0 27 4 37 15 37 13 0 15
-17 10 -122z m-7713 79 c-34 -35 -39 -56 -20 -90 10 -20 10 -21 -5 -8 -26 21
-21 71 10 103 15 15 31 28 37 28 5 0 -4 -15 -22 -33z m3868 13 c0 -5 -7 -10
-16 -10 -8 0 -12 5 -9 10 3 6 10 10 16 10 5 0 9 -4 9 -10z m-303 -16 c-3 -3
-12 -4 -19 -1 -8 3 -5 6 6 6 11 1 17 -2 13 -5z m363 -4 c0 -5 -4 -10 -10 -10
-5 0 -10 5 -10 10 0 6 5 10 10 10 6 0 10 -4 10 -10z m3179 -1 c20 -7 43 -14
51 -17 11 -3 12 -6 2 -9 -18 -7 -112 17 -112 28 0 12 16 11 59 -2z m-4259 -67
c7 -6 -65 5 -112 18 -21 6 -38 15 -38 20 0 8 140 -27 150 -38z m1185 38 c3 -5
1 -10 -4 -10 -6 0 -11 5 -11 10 0 6 2 10 4 10 3 0 8 -4 11 -10z m-245 -10 c0
-5 -4 -10 -10 -10 -5 0 -10 5 -10 10 0 6 5 10 10 10 6 0 10 -4 10 -10z m-225
-10 c3 -5 1 -10 -4 -10 -6 0 -11 5 -11 10 0 6 2 10 4 10 3 0 8 -4 11 -10z
m561 -3 c4 -4 0 -7 -9 -7 -9 0 -18 4 -21 9 -7 10 20 9 30 -2z m3219 -10 c37
-20 -7 -19 -70 2 l-60 20 55 -5 c30 -4 64 -11 75 -17z m-3470 3 c3 -5 -1 -10
-9 -10 -9 0 -16 5 -16 10 0 6 4 10 9 10 6 0 13 -4 16 -10z m42 -16 c-3 -3 -12
-4 -19 -1 -8 3 -5 6 6 6 11 1 17 -2 13 -5z m-852 -48 c138 -36 185 -52 185
-61 0 -4 -4 -4 -9 -1 -4 3 -79 24 -167 46 -87 23 -160 43 -163 46 -10 10 31 2
154 -30z m733 4 c17 -8 32 -17 32 -21 0 -11 -74 18 -78 31 -3 7 -1 10 4 8 5
-3 24 -11 42 -18z m-794 -74 c257 -70 310 -86 277 -86 -50 0 -567 142 -585
161 -8 8 -6 10 9 6 11 -4 145 -40 299 -81z m1110 76 c3 -5 -1 -9 -9 -9 -8 0
-15 4 -15 9 0 4 4 8 9 8 6 0 12 -4 15 -8z m-229 -32 c-3 -5 -10 -10 -16 -10
-5 0 -9 5 -9 10 0 6 7 10 16 10 8 0 12 -4 9 -10z m312 4 c-3 -3 -12 -4 -19 -1
-8 3 -5 6 6 6 11 1 17 -2 13 -5z m-252 -14 c3 -5 -1 -10 -9 -10 -9 0 -16 5
-16 10 0 6 4 10 9 10 6 0 13 -4 16 -10z m90 -28 c-3 -3 -11 0 -18 7 -9 10 -8
11 6 5 10 -3 15 -9 12 -12z m265 8 c0 -5 -2 -10 -4 -10 -3 0 -8 5 -11 10 -3 6
-1 10 4 10 6 0 11 -4 11 -10z m-580 -20 c23 -6 39 -14 36 -17 -7 -8 -87 17
-101 30 -7 7 -4 8 7 4 9 -3 35 -11 58 -17z m400 -10 c0 -5 -2 -10 -4 -10 -3 0
-8 5 -11 10 -3 6 -1 10 4 10 6 0 11 -4 11 -10z m-1295 -46 c86 -27 65 -31 -27
-5 -72 21 -128 47 -73 34 17 -3 62 -16 100 -29z m1010 26 c7 -12 -22 -12 -50
0 -17 7 -15 9 12 9 17 1 35 -3 38 -9z m-2680 -104 c207 -63 285 -109 324 -191
39 -83 19 -177 -51 -241 -25 -22 -28 -23 -12 -4 84 98 86 217 4 298 -46 46
-109 76 -251 118 -121 35 -211 73 -224 94 -3 5 16 -1 42 -14 26 -13 102 -41
168 -60z m2545 54 c0 -5 -4 -10 -9 -10 -6 0 -13 5 -16 10 -3 6 1 10 9 10 9 0
16 -4 16 -10z m-3303 -32 c-3 -8 -6 -5 -6 6 -1 11 2 17 5 13 3 -3 4 -12 1 -19z
m4083 12 c0 -5 -7 -10 -15 -10 -8 0 -15 5 -15 10 0 6 7 10 15 10 8 0 15 -4 15
-10z m-430 -21 c0 -4 -7 -6 -15 -3 -8 4 -15 10 -15 15 0 4 7 6 15 3 8 -4 15
-10 15 -15z m-3544 -136 c26 -15 79 -28 150 -38 181 -25 274 -66 361 -158 61
-64 79 -112 63 -162 -6 -19 -16 -35 -21 -35 -6 0 -6 8 1 19 26 51 -2 122 -75
190 -81 75 -176 109 -392 142 -104 15 -171 67 -188 144 -6 24 0 19 27 -25 22
-35 49 -63 74 -77z m2319 97 c55 -17 82 -28 60 -25 -46 7 -198 53 -175 54 8 0
60 -13 115 -29z m865 20 c0 -5 -2 -10 -4 -10 -3 0 -8 5 -11 10 -3 6 -1 10 4
10 6 0 11 -4 11 -10z m100 -21 c0 -11 -11 -11 -29 0 -7 5 -10 14 -6 20 5 9 10
9 21 0 8 -6 14 -15 14 -20z m3413 -1 c66 -21 88 -39 45 -37 -46 1 -192 44
-196 58 -6 18 53 10 151 -21z m-6723 18 c0 -2 -7 -7 -16 -10 -8 -3 -12 -2 -9
4 6 10 25 14 25 6z m6084 -21 c75 -17 128 -41 66 -30 -51 10 -170 45 -170 51
0 3 8 3 18 0 9 -3 48 -12 86 -21z m-2688 -33 c-7 -6 -76 19 -76 28 0 5 18 1
40 -7 22 -9 38 -18 36 -21z m354 28 c8 -5 11 -10 5 -10 -5 0 -17 5 -25 10 -8
5 -10 10 -5 10 6 0 17 -5 25 -10z m55 -10 c3 -5 -3 -10 -14 -10 -12 0 -21 5
-21 10 0 6 6 10 14 10 8 0 18 -4 21 -10z m-365 -20 c12 -8 11 -10 -7 -10 -13
0 -23 5 -23 10 0 13 11 13 30 0z m420 6 c0 -2 -7 -6 -15 -10 -8 -3 -15 -1 -15
4 0 6 7 10 15 10 8 0 15 -2 15 -4z m-3940 -10 c0 -2 -8 -10 -17 -17 -16 -13
-17 -12 -4 4 13 16 21 21 21 13z m3703 -33 c26 -8 47 -19 47 -25 0 -6 -8 -8
-17 -5 -10 2 -46 13 -80 22 -35 10 -63 22 -63 27 0 11 43 4 113 -19z m342 7
c3 -5 1 -10 -4 -10 -6 0 -11 5 -11 10 0 6 2 10 4 10 3 0 8 -4 11 -10z m-1632
-25 c32 -9 57 -19 55 -21 -5 -5 -170 35 -177 43 -9 9 56 -3 122 -22z m-2483
-39 c-28 -50 -30 -56 -18 -92 18 -52 60 -78 169 -104 184 -43 241 -79 254
-161 l6 -34 -15 38 c-29 77 -74 105 -232 142 -120 29 -153 43 -183 81 -31 40
-27 91 10 142 17 23 33 42 35 42 2 0 -9 -24 -26 -54z m3485 44 c3 -5 1 -10 -4
-10 -6 0 -11 5 -11 10 0 6 2 10 4 10 3 0 8 -4 11 -10z m752 -6 c-3 -3 -12 -4
-19 -1 -8 3 -5 6 6 6 11 1 17 -2 13 -5z m-563 -43 c4 -5 -3 -7 -14 -4 -23 6
-26 13 -6 13 8 0 17 -4 20 -9z m371 -17 c25 -11 26 -13 9 -14 -23 0 -94 27
-94 35 0 7 48 -5 85 -21z m-596 0 c2 -2 2 -6 0 -9 -8 -7 -49 7 -49 17 0 8 38
2 49 -8z m329 -9 c3 -3 3 -8 -1 -11 -7 -7 -67 18 -67 28 0 7 59 -7 68 -17z
m2495 -1 c55 -14 117 -33 136 -42 35 -15 35 -16 11 -19 -33 -5 -273 60 -278
75 -5 17 18 15 131 -14z m-3063 -10 c0 -8 -4 -12 -10 -9 -5 3 -10 10 -10 16 0
5 5 9 10 9 6 0 10 -7 10 -16z m917 -12 c-23 -5 -47 4 -47 17 0 6 13 5 33 -2
23 -8 27 -12 14 -15z m-257 -2 c12 -8 11 -10 -7 -10 -13 0 -23 5 -23 10 0 13
11 13 30 0z m-1423 -6 c-3 -3 -12 -4 -19 -1 -8 3 -5 6 6 6 11 1 17 -2 13 -5z
m1183 -4 c0 -5 -7 -10 -15 -10 -8 0 -15 5 -15 10 0 6 7 10 15 10 8 0 15 -4 15
-10z m305 -21 c-10 -15 -25 -10 -19 6 4 8 10 12 15 9 5 -3 7 -10 4 -15z m-480
-20 c16 -16 -20 -10 -41 7 -18 14 -18 15 6 8 14 -3 29 -10 35 -15z m290 3 c18
-11 17 -12 -9 -7 -16 2 -33 8 -38 13 -13 13 23 8 47 -6z m230 8 c3 -5 2 -10
-4 -10 -5 0 -13 5 -16 10 -3 6 -2 10 4 10 5 0 13 -4 16 -10z m35 -10 c0 -5 -4
-10 -10 -10 -5 0 -10 5 -10 10 0 6 5 10 10 10 6 0 10 -4 10 -10z m-506 -15
c11 -8 15 -15 9 -15 -19 0 -43 12 -43 21 0 13 12 11 34 -6z m612 -13 c1 -7 0
-8 -3 -2 -3 8 -9 7 -19 -1 -8 -6 -14 -7 -14 -2 0 24 31 28 36 5z m774 -2 c0
-5 -5 -10 -11 -10 -5 0 -7 5 -4 10 3 6 8 10 11 10 2 0 4 -4 4 -10z m40 -10 c0
-5 -5 -10 -11 -10 -5 0 -7 5 -4 10 3 6 8 10 11 10 2 0 4 -4 4 -10z m1397 -39
c103 -27 249 -66 323 -86 74 -20 178 -48 230 -61 52 -14 97 -28 99 -30 20 -20
-42 -8 -241 46 -128 34 -309 82 -401 106 -155 40 -207 58 -207 69 0 8 -2 8
197 -44z m-2657 19 c0 -5 -2 -10 -4 -10 -3 0 -8 5 -11 10 -3 6 -1 10 4 10 6 0
11 -4 11 -10z m-460 -10 c0 -5 -4 -10 -10 -10 -5 0 -10 5 -10 10 0 6 5 10 10
10 6 0 10 -4 10 -10z m220 0 c13 -9 13 -10 0 -10 -8 0 -22 5 -30 10 -13 9 -13
10 0 10 8 0 22 -5 30 -10z m310 -4 c0 -3 -4 -8 -10 -11 -5 -3 -10 -1 -10 4 0
6 5 11 10 11 6 0 10 -2 10 -4z m550 -12 c0 -17 -22 -14 -28 4 -2 7 3 12 12 12
9 0 16 -7 16 -16z m-4735 -4 c17 -4 -16 -5 -72 -2 -126 6 -178 -7 -238 -60
-77 -68 -92 -124 -56 -203 22 -50 68 -89 146 -127 33 -15 53 -28 45 -28 -8 0
-42 13 -75 29 -65 31 -127 89 -144 134 -15 40 -14 103 4 136 22 43 93 100 145
116 47 14 194 18 245 5z m5555 0 c0 -5 -8 -10 -17 -10 -15 0 -16 2 -3 10 19
12 20 12 20 0z m-770 -4 c0 -3 -4 -8 -10 -11 -5 -3 -10 -1 -10 4 0 6 5 11 10
11 6 0 10 -2 10 -4z m-4723 -12 c-3 -3 -12 -4 -19 -1 -8 3 -5 6 6 6 11 1 17
-2 13 -5z m3968 -4 c3 -5 -1 -10 -9 -10 -9 0 -16 5 -16 10 0 6 4 10 9 10 6 0
13 -4 16 -10z m-380 -20 c3 -5 1 -10 -4 -10 -6 0 -11 5 -11 10 0 6 2 10 4 10
3 0 8 -4 11 -10z m216 -15 c19 -8 27 -14 19 -14 -14 0 -72 28 -59 29 4 0 22
-7 40 -15z m254 5 c3 -5 -1 -10 -9 -10 -9 0 -16 5 -16 10 0 6 4 10 9 10 6 0
13 -4 16 -10z m-179 -38 c-22 -5 -30 3 -21 18 5 8 11 7 22 -2 15 -12 14 -13
-1 -16z m559 18 c3 -5 1 -10 -4 -10 -6 0 -11 5 -11 10 0 6 2 10 4 10 3 0 8 -4
11 -10z m525 -10 c0 -5 -7 -7 -15 -4 -8 4 -15 8 -15 10 0 2 7 4 15 4 8 0 15
-4 15 -10z m-470 -10 c0 -5 -7 -7 -15 -4 -8 4 -15 8 -15 10 0 2 7 4 15 4 8 0
15 -4 15 -10z m-520 -10 c0 -5 -4 -10 -10 -10 -5 0 -10 5 -10 10 0 6 5 10 10
10 6 0 10 -4 10 -10z m616 -17 c-10 -10 -19 5 -10 18 6 11 8 11 12 0 2 -7 1
-15 -2 -18z m-1753 -19 c42 -15 76 -29 73 -31 -5 -5 -196 57 -196 64 0 8 34
-1 123 -33z m752 16 c3 -5 1 -10 -4 -10 -6 0 -11 5 -11 10 0 6 2 10 4 10 3 0
8 -4 11 -10z m1095 -10 c0 -5 -4 -10 -10 -10 -5 0 -10 5 -10 10 0 6 5 10 10
10 6 0 10 -4 10 -10z m-789 -36 c25 -11 27 -14 9 -10 -14 3 -31 6 -37 6 -7 0
-13 5 -13 10 0 13 2 13 41 -6z m-857 -34 c76 -28 42 -24 -44 5 -41 13 -60 22
-41 19 19 -4 57 -14 85 -24z m942 3 c-8 -8 -36 5 -36 17 0 7 6 7 21 0 11 -7
18 -14 15 -17z m3405 -218 c-7 -115 -19 -309 -27 -430 -8 -121 -19 -296 -24
-390 -5 -93 -17 -271 -25 -395 -8 -124 -29 -434 -45 -690 -34 -506 -57 -800
-65 -808 -7 -7 -6 40 5 208 5 80 18 294 29 475 12 182 32 490 46 685 13 195
27 405 30 465 4 61 15 245 25 410 11 165 25 379 31 475 13 220 18 259 26 225
3 -10 0 -114 -6 -230z m-3575 199 c17 -14 17 -15 1 -10 -10 3 -25 6 -33 6 -8
0 -14 5 -14 10 0 15 24 12 46 -6z m269 6 c3 -5 -1 -10 -10 -10 -9 0 -13 5 -10
10 3 6 8 10 10 10 2 0 7 -4 10 -10z m-950 -20 c13 -6 15 -9 5 -9 -8 0 -22 4
-30 9 -18 12 -2 12 25 0z m745 0 c8 -5 11 -12 8 -16 -10 -9 -38 3 -38 16 0 12
10 13 30 0z m260 0 c8 -5 11 -10 5 -10 -5 0 -17 5 -25 10 -8 5 -10 10 -5 10 6
0 17 -5 25 -10z m2479 -16 c66 -19 68 -38 4 -28 -65 9 -116 28 -121 44 -5 15
32 10 117 -16z m-2414 -4 c18 -8 17 -9 -7 -9 -16 -1 -28 4 -28 9 0 12 8 12 35
0z m-240 -10 c3 -5 1 -10 -4 -10 -6 0 -11 5 -11 10 0 6 2 10 4 10 3 0 8 -4 11
-10z m-255 -10 c0 -5 -2 -10 -4 -10 -3 0 -8 5 -11 10 -3 6 -1 10 4 10 6 0 11
-4 11 -10z m590 0 c0 -5 -4 -10 -10 -10 -5 0 -10 5 -10 10 0 6 5 10 10 10 6 0
10 -4 10 -10z m-457 -36 c37 -9 67 -20 67 -25 0 -4 -10 -6 -22 -3 -39 9 -53
12 -53 14 0 1 -7 3 -15 5 -8 2 -33 11 -55 19 -43 18 -28 16 78 -10z m287 -7
c0 -5 -7 -6 -16 -3 -9 3 -27 9 -40 12 -13 3 -24 10 -24 14 0 4 18 2 40 -3 22
-6 40 -15 40 -20z m-1300 -59 c0 -5 -8 -7 -17 -4 -10 2 -37 10 -60 17 -30 8
-43 18 -43 30 0 16 6 15 60 -8 33 -15 60 -30 60 -35z m1340 52 c12 -8 11 -10
-7 -10 -13 0 -23 5 -23 10 0 13 11 13 30 0z m-455 -20 c3 -5 2 -10 -4 -10 -5
0 -13 5 -16 10 -3 6 -2 10 4 10 5 0 13 -4 16 -10z m220 0 c3 -5 1 -10 -4 -10
-6 0 -11 5 -11 10 0 6 2 10 4 10 3 0 8 -4 11 -10z m-3284 -26 c-67 -47 -65
-167 4 -242 l34 -37 164 0 c152 0 168 -2 194 -21 15 -11 34 -32 40 -45 15 -29
17 -103 3 -94 -5 3 -10 16 -10 29 0 46 -21 84 -56 101 -29 13 -55 15 -172 9
-149 -7 -181 0 -224 50 -45 50 -62 140 -37 189 15 30 60 77 73 77 6 0 0 -7
-13 -16z m3119 0 c0 -2 -7 -4 -15 -4 -8 0 -15 4 -15 10 0 5 7 7 15 4 8 -4 15
-8 15 -10z m277 0 c-3 -3 -12 -4 -19 -1 -8 3 -5 6 6 6 11 1 17 -2 13 -5z
m2643 -34 c265 -69 556 -157 548 -165 -2 -2 -71 14 -153 35 -83 22 -244 64
-358 93 -115 30 -213 59 -220 66 -19 19 20 13 183 -29z m-2880 24 c0 -8 -19
-13 -24 -6 -3 5 1 9 9 9 8 0 15 -2 15 -3z m280 2 c0 -11 -19 -15 -25 -6 -3 5
1 10 9 10 9 0 16 -2 16 -4z m320 -16 c0 -5 -4 -10 -10 -10 -5 0 -10 5 -10 10
0 6 5 10 10 10 6 0 10 -4 10 -10z m-535 -10 c3 -5 -1 -10 -9 -10 -8 0 -18 5
-21 10 -3 6 1 10 9 10 8 0 18 -4 21 -10z m46 -18 c-7 -2 -18 1 -23 6 -8 8 -4
9 13 5 13 -4 18 -8 10 -11z m519 8 c0 -5 -2 -10 -4 -10 -3 0 -8 5 -11 10 -3 6
-1 10 4 10 6 0 11 -4 11 -10z m-1549 -60 c340 -105 454 -144 436 -148 -10 -2
-76 14 -145 36 -70 22 -205 63 -300 92 -152 47 -230 79 -196 80 6 0 98 -27
205 -60z m898 13 c2 -1 -6 -1 -18 0 -11 1 -21 8 -21 15 0 12 3 12 18 1 9 -7
19 -14 21 -16z m804 14 c4 3 7 1 7 -6 0 -8 -6 -11 -16 -7 -9 3 -20 6 -25 6 -6
0 -7 5 -4 10 5 8 11 8 19 1 7 -6 16 -8 19 -4z m-532 -15 c-7 -2 -18 1 -23 6
-8 8 -4 9 13 5 13 -4 18 -8 10 -11z m37 -17 c-3 -3 -9 2 -12 12 -6 14 -5 15 5
6 7 -7 10 -15 7 -18z m-208 -5 c0 -5 -4 -10 -10 -10 -5 0 -10 5 -10 10 0 6 5
10 10 10 6 0 10 -4 10 -10z m-1059 -36 c180 -52 493 -155 503 -165 20 -18 -23
-8 -239 60 -121 38 -259 81 -307 95 -48 15 -90 31 -93 36 -9 15 4 13 136 -26z
m419 26 c8 -5 11 -10 5 -10 -5 0 -17 5 -25 10 -8 5 -10 10 -5 10 6 0 17 -5 25
-10z m963 -7 c-7 -2 -19 -2 -25 0 -7 3 -2 5 12 5 14 0 19 -2 13 -5z m-138 -33
c3 -5 1 -10 -4 -10 -6 0 -11 5 -11 10 0 6 2 10 4 10 3 0 8 -4 11 -10z m-275
-16 c0 -8 -4 -12 -10 -9 -5 3 -10 10 -10 16 0 5 5 9 10 9 6 0 10 -7 10 -16z
m400 -14 c0 -5 -4 -10 -10 -10 -5 0 -10 5 -10 10 0 6 5 10 10 10 6 0 10 -4 10
-10z m70 -10 c12 -8 11 -10 -7 -10 -13 0 -23 5 -23 10 0 13 11 13 30 0z m-335
-10 c3 -5 1 -10 -4 -10 -6 0 -11 5 -11 10 0 6 2 10 4 10 3 0 8 -4 11 -10z
m380 -10 c-3 -5 -10 -10 -16 -10 -5 0 -9 5 -9 10 0 6 7 10 16 10 8 0 12 -4 9
-10z m795 0 c0 -5 -5 -10 -11 -10 -5 0 -7 5 -4 10 3 6 8 10 11 10 2 0 4 -4 4
-10z m-750 -10 c0 -5 -5 -10 -11 -10 -5 0 -7 5 -4 10 3 6 8 10 11 10 2 0 4 -4
4 -10z m-595 -10 c3 -5 2 -10 -4 -10 -5 0 -13 5 -16 10 -3 6 -2 10 4 10 5 0
13 -4 16 -10z m2960 -68 c68 -22 90 -49 32 -39 -77 12 -267 78 -267 92 0 14
82 -5 235 -53z m-2925 48 c0 -5 -2 -10 -4 -10 -3 0 -8 5 -11 10 -3 6 -1 10 4
10 6 0 11 -4 11 -10z m650 0 c0 -5 -5 -10 -11 -10 -5 0 -7 5 -4 10 3 6 8 10
11 10 2 0 4 -4 4 -10z m-610 -10 c0 -5 -4 -10 -10 -10 -5 0 -10 5 -10 10 0 6
5 10 10 10 6 0 10 -4 10 -10z m380 1 c0 -6 -4 -13 -10 -16 -5 -3 -10 1 -10 9
0 9 5 16 10 16 6 0 10 -4 10 -9z m30 -11 c0 -5 -5 -10 -11 -10 -5 0 -7 5 -4
10 3 6 8 10 11 10 2 0 4 -4 4 -10z m270 0 c0 -5 -5 -10 -11 -10 -5 0 -7 5 -4
10 3 6 8 10 11 10 2 0 4 -4 4 -10z m-248 -22 c-7 -7 -12 -8 -12 -2 0 14 12 26
19 19 2 -3 -1 -11 -7 -17z m328 8 c0 -3 -4 -8 -10 -11 -5 -3 -10 -1 -10 4 0 6
5 11 10 11 6 0 10 -2 10 -4z m22 -18 c-7 -7 -12 -8 -12 -2 0 14 12 26 19 19 2
-3 -1 -11 -7 -17z m-282 2 c0 -5 -5 -10 -11 -10 -5 0 -7 5 -4 10 3 6 8 10 11
10 2 0 4 -4 4 -10z m80 -32 c0 -5 -12 -5 -27 -2 -37 9 -44 14 -38 24 6 10 65
-11 65 -22z m-1230 -9 c18 -11 -34 -1 -65 13 -13 5 -9 6 15 2 19 -4 42 -10 50
-15z m1560 17 c0 -3 -4 -8 -10 -11 -5 -3 -10 -1 -10 4 0 6 5 11 10 11 6 0 10
-2 10 -4z m-850 -25 c0 -13 -29 -8 -34 5 -3 7 2 10 15 7 10 -3 19 -9 19 -12z
m883 2 c-7 -2 -19 -2 -25 0 -7 3 -2 5 12 5 14 0 19 -2 13 -5z m-1508 -18 c39
-17 21 -18 -25 0 -19 7 -28 14 -20 14 8 0 29 -6 45 -14z m1575 5 c0 -5 -5 -10
-11 -10 -5 0 -7 5 -4 10 3 6 8 10 11 10 2 0 4 -4 4 -10z m-2085 -17 c36 -17
46 -33 21 -33 -20 0 -84 28 -91 40 -10 16 31 12 70 -7z m990 -18 l30 -13 -30
3 c-16 1 -32 4 -35 5 -3 1 -11 3 -19 4 -8 0 -16 7 -19 15 -5 14 15 10 73 -14z
m-178 -37 c-3 -8 -6 -5 -6 6 -1 11 2 17 5 13 3 -3 4 -12 1 -19z m1513 2 c0 -5
-5 -10 -11 -10 -5 0 -7 5 -4 10 3 6 8 10 11 10 2 0 4 -4 4 -10z m-4518 -11
c47 -10 62 -21 129 -88 96 -97 250 -303 300 -403 85 -168 143 -427 144 -633 0
-124 -2 -134 -34 -214 -32 -81 -33 -85 -18 -117 19 -38 82 -90 249 -205 167
-115 269 -231 320 -364 23 -60 18 -84 -9 -45 -36 51 -138 169 -213 245 -107
110 -215 162 -425 206 l-60 13 44 6 c41 6 102 1 164 -15 15 -4 27 -3 27 1 -1
13 -47 44 -70 49 -11 2 -28 9 -37 15 -16 10 -15 10 5 5 19 -6 18 -2 -13 32
-19 21 -35 44 -35 51 0 20 62 177 72 180 21 9 4 177 -38 387 -16 80 -80 279
-111 345 -86 184 -297 446 -397 494 -45 21 -110 20 -176 -3 -54 -19 -55 -20
-27 -30 15 -6 27 -12 27 -15 0 -2 -39 -3 -87 -2 -83 1 -93 -1 -182 -41 -51
-24 -100 -43 -108 -43 -8 0 -11 -5 -7 -12 4 -6 3 -8 -3 -5 -17 10 -101 -52
-132 -97 -106 -154 -171 -380 -171 -594 0 -149 33 -293 84 -367 17 -25 17 -28
2 -15 -32 26 -75 114 -92 189 -23 103 -15 383 14 492 78 292 238 460 512 539
41 12 93 28 115 36 89 32 160 39 237 23z m3068 -1 c0 -4 -7 -8 -15 -8 -8 0
-15 4 -15 8 0 5 7 9 15 9 8 0 15 -4 15 -9z m27 -20 c-3 -8 -6 -5 -6 6 -1 11 2
17 5 13 3 -3 4 -12 1 -19z m2936 -75 c48 -14 85 -28 83 -30 -5 -5 -218 56
-226 64 -7 8 40 -3 143 -34z m-3358 3 c22 -8 148 -49 280 -92 132 -42 245 -81
250 -87 7 -7 5 -8 -5 -5 -8 3 -142 46 -297 97 -156 50 -283 94 -283 96 0 8 12
6 55 -9z m-455 -43 c30 -11 31 -12 6 -8 -16 4 -43 13 -60 20 -23 11 -25 13 -6
8 14 -3 41 -12 60 -20z m-1652 -68 c-6 -6 -58 44 -58 55 0 5 14 -5 31 -21 18
-16 30 -32 27 -34z m5526 38 c62 -17 91 -29 76 -31 -14 -1 -65 11 -115 27
-114 37 -92 39 39 4z m-3719 -18 c40 -18 16 -19 -26 0 -19 8 -27 14 -19 14 8
0 29 -6 45 -14z m-2791 -4 c3 -4 -22 -9 -57 -10 -43 0 -58 2 -47 9 19 12 97
13 104 1z m4076 -1 c0 -5 -4 -10 -10 -10 -5 0 -10 5 -10 10 0 6 5 10 10 10 6
0 10 -4 10 -10z m2382 -50 c73 -23 157 -48 186 -57 28 -9 52 -20 52 -24 0 -5
-3 -9 -7 -9 -22 0 -373 114 -373 122 0 11 -7 13 142 -32z m-5467 -5 c14 -13
25 -31 25 -40 0 -21 -54 -75 -75 -75 -23 0 -65 45 -65 70 0 27 43 70 70 70 12
0 32 -11 45 -25z m1670 15 c3 -6 -1 -7 -9 -4 -18 7 -21 14 -7 14 6 0 13 -4 16
-10z m1830 -8 c0 -18 -20 -15 -23 4 -3 10 1 15 10 12 7 -3 13 -10 13 -16z
m-1713 -111 c139 -48 342 -119 450 -156 109 -37 206 -73 215 -81 35 -25 3 -25
-69 -1 -127 44 -537 186 -705 244 -100 35 -163 62 -163 70 0 7 4 13 9 13 5 0
124 -40 263 -89z m3702 34 c78 -24 195 -61 261 -81 134 -41 137 -42 130 -54
-5 -9 -45 1 -240 62 -190 58 -305 100 -305 109 0 13 1 13 154 -36z m-2572 -19
c40 -13 143 -50 228 -81 85 -31 253 -92 372 -135 119 -43 231 -88 247 -100 50
-35 43 -73 -45 -273 -295 -671 -348 -782 -370 -780 -10 1 -127 45 -259 98
-416 166 -639 253 -682 266 -25 7 -43 18 -43 27 0 16 92 246 121 304 11 21 35
75 53 121 19 45 65 154 103 242 38 88 80 186 93 219 27 69 64 116 91 116 10 0
51 -11 91 -24z m-965 8 c-3 -3 -12 -4 -19 -1 -8 3 -5 6 6 6 11 1 17 -2 13 -5z
m-1850 -46 c23 -21 30 -62 15 -85 -15 -24 -59 -26 -81 -4 -27 27 -27 51 0 85
25 32 36 32 66 4z m121 13 c20 -12 10 -53 -15 -62 -16 -6 -29 -2 -48 13 l-26
21 28 18 c31 21 42 23 61 10z m2172 -117 c0 -2 -7 -4 -15 -4 -8 0 -15 4 -15
10 0 5 7 7 15 4 8 -4 15 -8 15 -10z m-1549 -101 c9 -23 34 -152 93 -463 14
-74 28 -146 32 -160 7 -22 6 -23 -9 -12 -8 7 -18 25 -21 40 -11 54 -46 260
-66 381 -39 236 -31 218 -116 257 -41 18 -74 36 -74 38 0 3 34 -9 76 -26 55
-23 78 -38 85 -55z m779 13 c69 -25 195 -70 280 -101 180 -65 374 -133 512
-178 55 -18 98 -38 98 -44 0 -17 2 -18 -87 18 -43 17 -145 55 -228 84 -82 29
-270 96 -417 149 -147 53 -272 96 -277 96 -5 0 -13 5 -16 10 -10 16 4 13 135
-34z m-1368 -41 c-7 -37 20 -69 75 -90 26 -9 62 -23 78 -30 17 -7 68 -25 115
-40 75 -24 120 -45 96 -45 -9 0 -172 56 -201 69 -11 5 -38 15 -60 22 -65 19
-94 37 -110 70 -9 16 -13 39 -10 49 9 29 23 24 17 -5z m3783 -185 c150 -51
358 -118 423 -135 12 -4 22 -11 22 -17 0 -5 -6 -8 -13 -5 -7 3 -154 51 -325
107 -172 55 -312 106 -312 112 0 6 8 7 18 3 9 -4 94 -33 187 -65z m-2955 -120
c19 -10 55 -23 79 -30 31 -8 40 -14 31 -20 -18 -11 -200 57 -200 75 0 8 52 -7
90 -25z m-225 -9 c-6 -5 -46 -20 -90 -34 -102 -32 -177 -65 -150 -66 11 -1 61
-17 110 -37 50 -20 104 -40 120 -44 l30 -7 -26 -7 c-19 -6 -45 1 -95 24 -83
38 -150 60 -185 60 -15 0 -51 -11 -80 -24 -30 -13 -91 -36 -136 -51 -81 -26
-96 -37 -70 -49 6 -3 2 -3 -10 0 -19 4 -181 -49 -235 -77 -10 -6 -18 -6 -18
-1 0 10 65 41 160 76 36 13 101 38 145 56 44 17 127 49 185 70 58 21 155 56
215 79 110 40 148 49 130 32z m3951 -15 c48 -22 95 -65 132 -118 9 -13 -7 0
-34 29 -41 42 -64 55 -119 72 -201 62 -310 -26 -384 -314 -11 -44 -30 -105
-42 -135 -17 -43 -24 -87 -29 -200 -7 -131 -11 -153 -40 -227 -18 -46 -37 -83
-41 -83 -18 0 -17 20 2 60 11 23 23 57 26 74 l4 31 -93 33 c-51 19 -176 63
-278 98 -291 101 -410 146 -410 156 0 13 13 10 132 -33 62 -22 151 -54 198
-69 100 -34 438 -157 449 -165 5 -2 11 48 13 113 4 96 10 133 35 207 17 50 43
131 58 180 51 168 114 264 195 299 56 24 165 20 226 -8z m-179 -46 c-32 -10
-66 -25 -76 -34 -23 -21 -37 -21 -20 0 21 26 82 53 119 53 32 0 30 -2 -23 -19z
m151 3 c41 -20 122 -96 122 -115 0 -7 -7 -3 -15 9 -26 37 -96 86 -149 105 -42
14 -46 17 -23 18 16 0 45 -8 65 -17z m1040 -77 c26 -13 60 -37 76 -52 31 -32
76 -114 76 -140 0 -9 -16 15 -36 54 -37 74 -63 99 -139 133 -25 11 -45 22 -45
24 0 10 23 4 68 -19z m-4630 -21 c1 -1 -10 -2 -25 -2 -16 0 -57 -3 -93 -7
l-65 -6 70 19 c64 16 88 16 113 -4z m-71 -35 c88 0 93 -1 109 -25 16 -25 16
-27 -5 -49 -28 -29 -83 -46 -154 -46 -63 0 -87 7 -87 24 0 9 24 11 88 8 62 -3
92 0 104 10 33 25 6 34 -87 28 -95 -6 -105 -2 -105 39 0 19 4 22 23 17 12 -3
64 -6 114 -6z m3228 -22 c43 -19 27 -28 -22 -11 -27 9 -50 17 -52 19 -11 9 51
3 74 -8z m-6137 -64 c184 -71 368 -158 375 -179 4 -8 5 -15 4 -15 -2 0 -41 16
-87 36 -47 19 -141 58 -210 85 -69 27 -151 62 -183 76 -67 31 -83 27 -103 -28
l-12 -34 -1 38 c-1 39 26 77 55 77 9 0 82 -25 162 -56z m3267 -4 c55 -21 129
-51 165 -67 36 -16 127 -51 202 -77 133 -46 212 -85 143 -70 -35 8 -267 93
-340 124 -56 24 -333 130 -340 130 -3 0 -2 -25 1 -54 6 -51 5 -57 -23 -85 -50
-49 -179 -75 -253 -51 -16 5 -5 6 31 3 104 -10 229 46 229 103 0 18 -5 24 -23
24 -13 0 -29 -6 -37 -12 -8 -7 -6 -3 4 9 10 13 23 20 27 17 5 -3 9 6 9 20 0
16 6 26 15 26 8 0 15 4 15 9 0 12 52 -2 175 -49z m4235 51 c0 -5 -14 -12 -30
-16 -105 -23 -134 -142 -65 -261 22 -37 104 -104 127 -104 4 0 8 -4 8 -10 0
-32 -90 17 -139 77 -33 40 -61 116 -61 168 0 47 40 116 80 137 37 19 80 24 80
9z m-5070 -11 c-8 -5 -22 -10 -30 -10 -13 0 -13 1 0 10 8 5 22 10 30 10 13 0
13 -1 0 -10z m274 -6 c11 -27 7 -37 -9 -24 -9 7 -18 10 -21 7 -3 -3 4 -14 15
-24 35 -29 23 -36 -14 -7 -41 31 -43 37 -12 52 30 15 34 14 41 -4z m4890 -5
c14 -11 31 -30 38 -42 7 -14 0 -11 -19 11 -17 17 -38 32 -47 32 -9 0 -16 5
-16 10 0 16 15 12 44 -11z m-5217 -5 c-3 -3 -12 -4 -19 -1 -8 3 -5 6 6 6 11 1
17 -2 13 -5z m-88 -40 c2 -2 -9 -8 -25 -14 -24 -9 -31 -8 -41 6 -7 10 -13 21
-13 25 0 7 70 -8 79 -17z m3835 1 c16 -7 25 -14 20 -17 -13 -7 -104 22 -104
33 0 10 37 3 84 -16z m-3489 -15 c3 -16 22 -43 41 -60 36 -31 37 -38 4 -20
-10 5 -28 26 -40 45 -12 19 -25 33 -30 30 -4 -3 -6 4 -3 15 8 29 20 25 28 -10z
m-120 5 c-16 -8 -35 -14 -41 -15 -7 0 -24 -6 -40 -14 l-27 -15 24 -9 c63 -24
162 -50 174 -46 7 3 18 -3 24 -14 9 -17 5 -24 -28 -46 -21 -15 -48 -37 -60
-50 l-21 -23 26 -12 c24 -10 30 -9 53 12 79 72 97 87 104 87 16 0 5 -18 -34
-55 -23 -22 -57 -71 -75 -110 -28 -56 -34 -81 -34 -133 0 -80 -18 -123 -64
-151 -20 -13 -36 -27 -36 -33 0 -6 -9 -3 -20 7 -20 18 -21 18 -58 -16 -57 -55
-93 -74 -103 -58 -10 16 21 45 84 81 20 12 37 25 37 29 0 4 -17 10 -37 14 -21
4 -82 29 -136 56 -55 27 -103 46 -108 43 -10 -6 -149 81 -149 93 0 4 5 2 11
-4 7 -7 24 -8 49 -2 63 14 180 61 175 69 -5 8 -112 50 -162 65 -14 4 -46 -7
-98 -35 -86 -44 -85 -44 -85 -30 0 6 4 10 9 10 5 0 32 14 60 31 48 30 60 47
45 62 -9 9 -72 -19 -111 -49 -32 -24 -63 -27 -63 -6 0 12 143 72 170 72 12 0
38 -9 58 -19 21 -11 66 -25 100 -32 34 -7 62 -16 62 -19 0 -4 17 -13 39 -20
36 -11 43 -10 110 21 39 18 70 37 68 42 -1 5 -32 18 -67 29 -220 67 -217 66
-186 74 16 4 41 3 55 -3 14 -5 77 -27 139 -48 l113 -38 30 22 c38 28 50 21 13
-8 -15 -11 -21 -21 -14 -21 7 0 27 13 46 29 18 16 41 34 51 40 16 9 16 12 3
21 -8 5 -23 10 -32 10 -9 0 -52 11 -95 24 -43 14 -89 26 -103 28 l-25 4 25 11
c99 44 148 62 165 62 15 -1 13 -4 -10 -14z m468 -16 c-16 -16 -150 -23 -193
-11 -29 8 -22 9 40 5 41 -2 93 0 115 5 22 6 42 10 45 11 2 1 -1 -4 -7 -10z
m4663 -94 c-7 -36 -39 -75 -62 -75 -10 0 -2 12 20 34 32 30 36 39 38 87 1 39
2 45 5 20 3 -19 2 -49 -1 -66z m-7811 41 c75 -36 150 -67 282 -115 110 -40
174 -74 150 -79 -22 -5 -221 66 -348 124 -136 62 -210 87 -223 74 -8 -8 -7
-13 2 -19 10 -6 10 -10 -3 -21 -21 -17 -19 -70 6 -159 23 -82 81 -207 209
-451 45 -85 139 -265 210 -400 263 -502 312 -595 321 -606 5 -6 28 -48 52 -95
61 -117 120 -221 154 -271 43 -64 47 -72 36 -65 -54 34 -430 707 -785 1407
-204 400 -248 509 -248 611 0 102 63 124 185 65z m2207 3 c-26 -17 -37 -19
-55 -11 -21 10 -20 11 8 11 17 1 37 6 45 11 8 5 20 10 25 10 6 0 -5 -10 -23
-21z m565 -1 c-3 -8 -6 -5 -6 6 -1 11 2 17 5 13 3 -3 4 -12 1 -19z m5153 -88
l-11 -25 6 25 c2 14 6 43 7 65 l1 40 4 -40 c2 -23 -1 -52 -7 -65z m-4630 74
c0 -8 -5 -12 -10 -9 -6 4 -8 11 -5 16 9 14 15 11 15 -7z m-830 1 c0 -2 -10 -9
-22 -15 -22 -11 -22 -10 -4 4 21 17 26 19 26 11z m945 -26 c50 -17 95 -35 100
-39 6 -4 46 -20 91 -36 77 -27 83 -27 136 -15 60 15 117 6 68 -9 -14 -5 -38
-11 -53 -14 -32 -8 -27 -26 8 -26 34 0 41 -18 10 -26 -14 -3 -29 -11 -33 -18
-12 -18 -70 -56 -87 -56 -20 0 -19 -16 2 -24 12 -5 14 -9 5 -18 -9 -9 -17 -9
-34 0 -41 20 -171 70 -228 88 -63 19 -80 31 -59 39 8 3 62 -9 119 -26 58 -17
115 -32 127 -33 11 0 19 -4 16 -8 -9 -16 20 -7 55 17 20 14 47 25 59 25 13 0
23 6 23 13 0 8 -43 28 -107 49 -60 20 -138 50 -175 67 -37 16 -83 37 -103 45
-19 8 -35 20 -35 25 0 14 -8 16 95 -20z m3454 7 c106 -59 178 -393 116 -544
-23 -57 -28 -49 -9 13 20 64 13 232 -14 328 -23 81 -74 160 -119 184 -28 15
-36 15 -72 3 -77 -25 -155 -135 -178 -252 -7 -33 -23 -48 -23 -20 0 52 73 213
114 251 52 49 134 65 185 37z m813 -66 c36 -22 34 -25 -6 -10 -24 9 -66 63
-66 85 0 6 9 -5 20 -23 11 -18 34 -41 52 -52z m-3366 26 c82 -29 79 -32 -11
-11 -75 18 -65 21 -195 -63 -171 -110 -192 -123 -226 -142 -19 -11 -34 -16
-34 -11 0 14 74 85 105 101 17 8 71 40 120 70 129 79 128 79 151 79 11 1 51
-10 90 -23z m1394 -46 c91 -34 236 -85 323 -115 158 -54 205 -74 178 -75 -8 0
-98 30 -200 66 -102 37 -255 90 -340 119 -85 28 -157 57 -159 65 -6 16 -12 18
198 -60z m1290 8 c17 -34 36 -68 41 -75 7 -8 7 -18 0 -30 -7 -12 -10 -13 -11
-4 0 19 -51 133 -68 154 -10 10 -11 17 -4 17 6 0 25 -28 42 -62z m-4746 21
c-5 -9 1 -10 20 -5 31 8 34 1 6 -14 -12 -6 -30 -8 -41 -5 -20 7 -20 7 -2 21
22 17 26 17 17 3z m1052 -10 c-15 -12 -31 -30 -34 -39 -5 -12 -13 -15 -26 -10
-17 6 -16 9 15 38 19 18 42 32 53 32 16 0 14 -3 -8 -21z m134 -17 c-8 -3 -34
-18 -59 -34 -44 -28 -97 -40 -74 -17 19 19 128 67 138 61 5 -3 3 -8 -5 -10z
m1317 -122 c99 -38 194 -76 210 -85 33 -19 31 -19 -152 50 -244 90 -415 159
-415 166 0 4 39 -8 88 -27 48 -20 169 -66 269 -104z m2288 120 c3 -5 2 -10 -4
-10 -5 0 -13 5 -16 10 -3 6 -2 10 4 10 5 0 13 -4 16 -10z m-3032 -17 c-7 -2
-19 -2 -25 0 -7 3 -2 5 12 5 14 0 19 -2 13 -5z m-43 -13 c0 -5 -5 -10 -11 -10
-5 0 -7 5 -4 10 3 6 8 10 11 10 2 0 4 -4 4 -10z m3940 1 c0 -16 -51 -71 -79
-85 -39 -20 -81 -28 -81 -16 0 5 5 10 11 10 30 0 107 44 123 70 18 31 26 37
26 21z m-5415 -10 c-6 -4 -32 -16 -60 -25 l-50 -16 30 25 c27 22 103 38 80 16z
m705 -32 c0 -5 -7 -9 -15 -9 -15 0 -20 12 -9 23 8 8 24 -1 24 -14z m700 6 c0
-12 -89 -95 -130 -121 -25 -16 -70 -47 -100 -69 -30 -23 -97 -70 -148 -105
-51 -35 -110 -83 -133 -107 -40 -43 -41 -44 -37 -16 2 17 15 37 33 51 17 12
53 44 80 71 28 26 79 66 115 87 71 43 215 148 225 164 3 5 16 10 28 10 13 0
29 9 37 20 13 18 30 27 30 15z m-645 -33 c-6 -4 -24 -18 -40 -32 -29 -24 -29
-23 2 8 18 17 36 32 40 32 4 0 3 -3 -2 -8z m-1040 -52 c-22 -10 -44 -16 -49
-12 -12 7 41 31 69 31 13 0 6 -6 -20 -19z m686 -163 c31 -188 21 -174 121
-172 115 2 119 4 149 66 15 30 37 63 50 74 l23 20 -17 -25 c-9 -13 -17 -42
-17 -63 0 -110 -71 -158 -208 -141 -89 11 -95 21 -120 210 -12 88 -22 174 -21
190 l1 29 8 -28 c5 -16 19 -88 31 -160z m3426 141 c-3 -7 -5 -2 -5 12 0 14 2
19 5 13 2 -7 2 -19 0 -25z m-4212 2 c3 -6 -1 -7 -9 -4 -18 7 -21 14 -7 14 6 0
13 -4 16 -10z m1181 -29 c17 -16 149 -54 191 -55 47 -1 53 -10 26 -36 -17 -16
-23 -15 -113 17 -52 18 -108 40 -125 48 -26 12 -33 12 -52 0 -12 -8 -26 -15
-30 -15 -12 1 70 50 83 50 5 0 14 -4 20 -9z m3271 -55 c-7 -17 -47 -22 -47 -7
0 5 7 17 16 26 19 19 40 6 31 -19z m-1402 -23 c130 -50 135 -54 129 -105 -3
-24 -10 -47 -15 -53 -8 -8 -5 35 6 72 6 17 -9 26 -137 78 -65 26 -118 50 -118
52 0 6 31 -4 135 -44z m1915 26 c0 -5 -4 -9 -10 -9 -5 0 -10 7 -10 16 0 8 5
12 10 9 6 -3 10 -10 10 -16z m-3870 -39 c12 -8 11 -10 -7 -10 -13 0 -23 5 -23
10 0 13 11 13 30 0z m50 -15 c-7 -9 -15 -13 -18 -10 -3 2 1 11 8 20 7 9 15 13
18 10 3 -2 -1 -11 -8 -20z m505 7 c-3 -3 -11 0 -18 7 -9 10 -8 11 6 5 10 -3
15 -9 12 -12z m2782 -30 c-15 -15 -27 -33 -27 -39 0 -14 -35 -53 -47 -53 -6 0
-16 6 -22 13 -8 11 -5 17 16 26 18 9 23 15 15 20 -23 14 25 61 61 61 l31 0
-27 -28z m530 -4 c-3 -8 -6 -5 -6 6 -1 11 2 17 5 13 3 -3 4 -12 1 -19z m-3597
6 c0 -2 -20 -17 -45 -34 -25 -17 -60 -46 -78 -65 -19 -19 -39 -35 -46 -35 -23
0 -71 31 -71 45 0 18 8 18 40 0 22 -12 27 -11 45 5 51 47 155 103 155 84z
m341 -45 c33 -16 57 -37 58 -49 0 -3 3 -13 6 -22 4 -10 5 -23 2 -30 -3 -7 -6
-4 -6 8 -2 38 -86 94 -142 94 -18 0 -19 2 -9 15 14 17 33 14 91 -16z m3258
-39 c-1 -46 -5 -60 -16 -60 -11 0 -14 6 -9 23 3 12 9 39 12 60 9 54 14 46 13
-23z m-4919 -8 c123 -59 266 -214 363 -394 45 -84 73 -155 64 -164 -3 -3 -19
19 -35 48 -17 29 -50 78 -74 110 -24 31 -55 78 -71 105 -44 78 -120 182 -146
199 -18 13 -30 15 -57 6 -33 -10 -48 -6 -38 9 3 5 16 9 30 9 29 0 32 16 4 25
-18 6 -115 61 -150 85 -28 20 32 -1 110 -38z m1168 36 c-6 -16 -46 -19 -55 -5
-3 6 -1 7 5 3 7 -4 12 -2 12 3 0 6 9 11 21 11 12 0 19 -5 17 -12z m2067 -58
c27 -11 104 -40 170 -65 222 -83 335 -130 335 -137 0 -15 -29 -8 -112 25 -46
19 -167 65 -270 103 -105 39 -188 74 -188 82 0 16 6 15 65 -8z m1064 1 c13
-24 5 -31 -37 -31 l-35 0 23 25 c28 30 36 31 49 6z m-3019 -67 c-30 -38 -66
-100 -83 -143 -17 -42 -43 -89 -58 -104 -25 -25 -37 -50 -53 -112 -3 -11 -4 3
-2 30 2 39 11 63 38 102 20 29 44 77 54 108 14 45 30 69 83 121 36 35 68 64
69 64 2 0 -20 -30 -48 -66z m1799 10 c-19 -20 -54 -49 -79 -66 -45 -29 -45
-29 -10 -1 19 15 53 47 75 70 22 22 42 39 44 37 3 -2 -11 -20 -30 -40z m1876
36 c3 -5 1 -10 -4 -10 -6 0 -11 5 -11 10 0 6 2 10 4 10 3 0 8 -4 11 -10z
m-3302 -23 c18 -8 64 -24 102 -37 83 -27 149 -59 141 -67 -3 -4 -23 3 -44 14
-20 11 -85 35 -144 53 -60 18 -108 37 -108 42 0 12 17 10 53 -5z m1836 -129
c124 -48 157 -64 135 -66 -18 -2 -92 21 -184 56 -85 32 -190 71 -232 86 -73
26 -86 35 -72 48 6 6 108 -29 353 -124z m751 114 c11 -11 16 -23 11 -30 -6
-10 -11 -10 -21 3 -7 8 -20 15 -30 15 -22 0 -34 -28 -20 -45 16 -20 -8 -31
-27 -13 -12 13 -10 19 18 51 37 42 43 44 69 19z m-2620 -32 c-20 -13 -33 -13
-25 0 3 6 14 10 23 10 15 0 15 -2 2 -10z m2445 -13 c41 -23 85 -78 85 -106 0
-9 -8 -2 -20 16 -22 37 -105 83 -148 83 -15 0 -50 -14 -76 -31 -27 -16 -50
-28 -52 -26 -10 10 10 35 48 60 53 34 108 35 163 4z m825 3 c18 -12 2 -12 -25
0 -13 6 -15 9 -5 9 8 0 22 -4 30 -9z m156 -51 c47 -17 83 -33 82 -35 -5 -4
-211 65 -218 73 -8 10 45 -6 136 -38z m-4916 21 c24 -15 7 -18 -20 -3 -14 7
-18 13 -10 13 8 0 22 -4 30 -10z m576 -15 c-13 -14 -30 -25 -37 -25 -8 1 -2
11 14 25 37 32 53 32 23 0z m174 -24 c19 -10 46 -22 60 -26 29 -8 170 -75 170
-80 0 -6 -86 23 -166 56 -43 17 -105 42 -137 54 -32 11 -55 24 -52 27 9 9 86
-10 125 -31z m2197 33 c-3 -3 -12 -4 -19 -1 -8 3 -5 6 6 6 11 1 17 -2 13 -5z
m-1252 -21 c-22 -2 -71 -8 -109 -14 -68 -11 -70 -12 -159 -98 -50 -47 -106
-103 -125 -123 -40 -44 -52 -47 -52 -15 0 26 29 56 149 152 132 105 132 105
241 103 52 -1 77 -3 55 -5z m1420 -33 c69 -23 80 -29 48 -26 -33 3 -162 53
-143 55 3 0 46 -13 95 -29z m-2614 -33 c-25 -40 -59 -73 -68 -64 -7 8 45 85
66 97 24 13 25 4 2 -33z m4410 -43 c134 -47 271 -95 304 -106 33 -11 64 -25
70 -30 10 -9 -236 75 -490 167 -119 43 -148 55 -133 55 3 0 115 -39 249 -86z
m-1112 62 c48 -17 53 -37 7 -29 -19 3 -69 -2 -112 -12 -72 -16 -83 -22 -140
-77 -63 -60 -88 -64 -59 -8 8 16 12 30 7 30 -5 0 -38 -13 -73 -29 -109 -48
-158 -56 -338 -53 -143 2 -163 0 -157 -13 7 -18 -8 -20 -26 -2 -20 19 -86 47
-111 47 -12 0 -35 -12 -51 -26 -26 -23 -28 -29 -17 -46 7 -11 11 -22 9 -24 -2
-2 -31 4 -63 12 -90 24 -293 15 -357 -15 -49 -22 -57 -34 -36 -47 7 -4 -16
-13 -51 -20 -35 -7 -141 -38 -235 -68 -94 -30 -197 -62 -228 -70 -32 -8 -110
-33 -175 -56 -166 -58 -192 -65 -205 -52 -13 13 -4 41 14 46 38 10 417 126
568 173 96 30 223 78 282 105 101 47 115 51 225 60 86 7 132 7 171 -2 52 -11
52 -11 79 20 58 70 58 70 127 39 41 -18 66 -20 225 -20 166 1 183 2 252 27 41
14 97 32 124 40 28 9 59 19 70 24 28 12 136 48 160 53 37 8 80 6 114 -7z
m-2032 -2 c-3 -3 -12 -4 -19 -1 -8 3 -5 6 6 6 11 1 17 -2 13 -5z m1057 -18
c-18 -14 -18 -15 7 -25 58 -22 110 -31 136 -25 26 7 27 6 13 -10 -19 -24 -87
-18 -160 15 l-54 25 34 21 c37 23 56 22 24 -1z m2261 14 c13 -5 14 -9 5 -9 -8
0 -24 4 -35 9 -13 5 -14 9 -5 9 8 0 24 -4 35 -9z m-2032 -27 c-7 -2 -19 -2
-25 0 -7 3 -2 5 12 5 14 0 19 -2 13 -5z m2117 -3 c8 -5 11 -10 5 -10 -5 0 -17
5 -25 10 -8 5 -10 10 -5 10 6 0 17 -5 25 -10z m-3454 -16 c18 -14 18 -14 -6
-3 -31 14 -36 19 -24 19 6 0 19 -7 30 -16z m-246 -14 c-24 -15 -36 -11 -14 4
10 8 21 12 24 10 2 -3 -2 -9 -10 -14z m127 -36 c143 -65 265 -128 256 -131 -6
-2 -41 12 -79 30 -38 19 -107 52 -154 73 -47 21 -94 44 -105 51 -37 24 3 13
82 -23z m3223 -49 c36 -13 139 -50 230 -83 91 -33 244 -88 340 -122 260 -93
310 -112 310 -123 0 -15 -19 -9 -490 161 -638 229 -620 222 -620 238 0 10 21
6 83 -17 45 -17 111 -42 147 -54z m480 70 c19 -7 28 -14 20 -14 -8 0 -28 6
-45 14 -39 17 -21 18 25 0z m-4928 -33 c118 -62 212 -127 247 -168 28 -34 59
-110 49 -120 -2 -2 -34 30 -70 70 -57 62 -83 81 -179 132 -62 32 -126 61 -143
64 -36 6 -58 36 -36 50 27 17 58 11 132 -28z m2348 17 c-42 -34 -67 -42 -30
-10 19 17 40 30 45 31 6 0 -1 -9 -15 -21z m346 -4 c-11 -8 -35 -15 -55 -15
-42 0 -34 11 16 20 56 11 60 11 39 -5z m-2866 -150 c73 -239 105 -328 146
-399 41 -70 45 -83 39 -120 -3 -22 -13 -54 -21 -71 -12 -26 -14 -27 -9 -5 3
14 8 48 11 75 6 46 3 53 -26 90 -44 54 -101 179 -140 306 -17 57 -40 132 -51
167 -25 82 -24 93 5 57 14 -16 34 -61 46 -100z m5361 85 c55 -17 99 -35 99
-40 0 -7 -198 55 -209 66 -9 9 16 3 110 -26z m-4161 -20 c23 -7 237 -99 303
-130 15 -7 27 -17 27 -21 0 -6 -128 42 -337 128 -35 14 -60 29 -57 35 3 5 13
6 23 3 9 -4 27 -11 41 -15z m1385 -10 c3 -5 -1 -10 -9 -10 -8 0 -18 5 -21 10
-3 6 1 10 9 10 8 0 18 -4 21 -10z m2542 -16 c-3 -3 -12 -4 -19 -1 -8 3 -5 6 6
6 11 1 17 -2 13 -5z m-3643 -15 c14 -7 23 -16 20 -20 -6 -10 -54 10 -54 23 0
11 4 10 34 -3z m3780 -28 c45 -16 116 -41 159 -56 42 -15 75 -30 73 -33 -4 -4
-120 35 -283 95 -40 15 -53 23 -36 23 4 0 43 -13 87 -29z m-4064 -3 c10 -6 7
-7 -10 -2 -14 3 -32 11 -40 16 -10 6 -7 7 10 2 14 -3 32 -11 40 -16z m990 2
c-20 -13 -43 -13 -35 0 3 6 16 10 28 10 18 0 19 -2 7 -10z m-1612 -9 c54 -11
55 -12 41 -47 -6 -16 -13 -23 -16 -16 -3 6 -14 12 -24 12 -11 0 -30 5 -42 11
-16 7 -13 3 8 -15 37 -32 27 -44 -17 -20 -45 26 -78 55 -78 71 0 15 60 17 128
4z m195 -7 c68 -23 64 -30 -10 -24 -38 3 -71 1 -78 -5 -18 -13 -45 -109 -45
-156 0 -35 -37 -118 -77 -174 -14 -19 -15 -19 -8 5 4 14 18 49 31 79 14 30 33
95 43 145 27 130 35 146 69 146 16 0 49 -7 75 -16z m312 -2 c6 -20 -29 -110
-38 -95 -7 11 15 113 24 113 4 0 10 -8 14 -18z m479 12 c28 -11 18 -27 -11
-19 -37 9 -53 25 -26 25 12 0 28 -3 37 -6z m-234 -46 c10 -6 7 -7 -10 -2 -14
3 -32 11 -40 16 -10 6 -7 7 10 2 14 -3 32 -11 40 -16z m405 7 c-51 -22 -82
-26 -40 -5 22 11 47 19 55 19 8 0 2 -6 -15 -14z m-407 -81 c92 -38 121 -61 60
-49 -18 4 -83 26 -145 51 -62 24 -117 44 -122 44 -14 0 -23 18 -16 30 6 10 53
-6 223 -76z m82 46 c8 -5 11 -10 5 -10 -5 0 -17 5 -25 10 -8 5 -10 10 -5 10 6
0 17 -5 25 -10z m4628 -60 c-30 -42 -30 -125 1 -168 30 -43 26 -60 -5 -23 -48
58 -49 136 -3 195 29 36 35 33 7 -4z m-8849 -46 c-8 -7 -91 -45 -184 -82 -228
-93 -258 -108 -252 -133 3 -10 1 -19 -3 -19 -15 0 -40 31 -34 41 9 16 80 48
263 121 97 38 185 78 196 89 12 12 21 15 24 8 2 -6 -3 -17 -10 -25z m3871 10
c0 -8 -4 -12 -10 -9 -5 3 -10 10 -10 16 0 5 5 9 10 9 6 0 10 -7 10 -16z m3217
-16 c-3 -8 -6 -5 -6 6 -1 11 2 17 5 13 3 -3 4 -12 1 -19z m-3131 -144 l5 -89
-25 80 c-14 44 -25 93 -26 110 l0 29 20 -20 c17 -16 22 -37 26 -110z m-509 44
c-3 -8 -6 -5 -6 6 -1 11 2 17 5 13 3 -3 4 -12 1 -19z m-3097 -108 c-55 -30
-181 -82 -187 -76 -10 9 177 95 207 95 8 0 -1 -8 -20 -19z m8619 -37 c68 -75
89 -142 72 -226 -32 -153 -145 -262 -401 -384 -74 -35 -143 -69 -153 -74 -10
-5 -86 -34 -169 -64 -154 -55 -198 -82 -198 -119 0 -26 65 -70 170 -116 130
-56 235 -149 258 -228 19 -62 15 -140 -9 -189 -12 -24 -23 -42 -25 -41 -2 2 6
33 17 68 23 74 21 108 -14 184 -34 74 -102 129 -264 211 -112 57 -139 75 -147
98 -20 55 21 83 224 152 156 54 316 129 447 212 147 92 209 162 247 274 26 81
-5 168 -93 262 -19 20 -30 37 -24 37 6 0 34 -26 62 -57z m-1822 11 c-19 -10
-38 -13 -55 -8 l-27 7 25 7 c14 5 39 8 55 9 l30 0 -28 -15z m-6558 -7 c-2 -2
-53 -25 -114 -52 -60 -26 -143 -63 -184 -81 -40 -19 -78 -34 -85 -34 -15 0 56
40 124 69 197 84 237 100 249 101 8 0 12 -2 10 -3z m2758 -29 c-3 -7 -5 -2 -5
12 0 14 2 19 5 13 2 -7 2 -19 0 -25z m-3904 -37 c-5 -56 -4 -60 28 -95 25 -26
88 -61 239 -132 113 -53 241 -113 285 -134 44 -21 152 -71 240 -113 88 -41
221 -104 295 -139 195 -94 291 -139 415 -196 143 -66 482 -231 474 -231 -10
-1 -186 77 -369 163 -96 46 -245 116 -330 156 -85 40 -216 102 -290 137 -74
36 -218 103 -320 150 -102 47 -248 115 -325 152 -77 37 -171 80 -209 97 -96
40 -156 96 -163 151 -4 30 -1 50 11 68 9 14 18 25 20 25 2 0 2 -26 -1 -59z
m172 49 c3 -6 -1 -7 -9 -4 -18 7 -21 14 -7 14 6 0 13 -4 16 -10z m9006 -57
c-9 -16 -10 -14 -11 12 0 21 3 26 11 18 8 -8 8 -16 0 -30z m-8806 -43 c3 -6
-1 -7 -9 -4 -18 7 -21 14 -7 14 6 0 13 -4 16 -10z m3274 -129 l0 -36 -13 35
c-7 19 -16 46 -20 60 l-7 25 20 -24 c14 -15 21 -36 20 -60z m4196 -21 c3 -5
-1 -10 -9 -10 -9 0 -16 5 -16 10 0 6 4 10 9 10 6 0 13 -4 16 -10z m1155 -5 c0
-7 -57 -35 -72 -35 -7 0 1 9 17 20 28 19 55 26 55 15z m-1326 -15 c7 0 21 -7
32 -15 17 -13 15 -13 -21 -4 -22 6 -44 16 -50 21 -7 8 -4 9 8 4 10 -3 24 -6
31 -6z m213 4 c-3 -3 -12 -4 -19 -1 -8 3 -5 6 6 6 11 1 17 -2 13 -5z m-127
-44 c8 -5 11 -10 5 -10 -5 0 -17 5 -25 10 -8 5 -10 10 -5 10 6 0 17 -5 25 -10z
m50 -20 c8 -5 11 -10 5 -10 -5 0 -17 5 -25 10 -8 5 -10 10 -5 10 6 0 17 -5 25
-10z m-7075 -10 c8 -13 -5 -13 -25 0 -13 8 -13 10 2 10 9 0 20 -4 23 -10z
m8104 6 c-2 -2 -60 -30 -129 -61 -69 -32 -210 -97 -315 -145 -104 -48 -210
-97 -235 -108 -133 -60 -163 -72 -166 -69 -2 2 29 19 69 37 39 18 119 56 177
83 119 56 547 251 570 260 18 7 35 9 29 3z m-1446 -69 c60 -23 104 -43 98 -45
-10 -3 -203 72 -231 90 -21 14 3 6 133 -45z m128 43 c10 0 19 -4 19 -10 0 -15
-34 -12 -56 6 -17 14 -17 15 -1 10 10 -3 27 -6 38 -6z m589 0 c0 -5 -7 -10
-15 -10 -8 0 -15 5 -15 10 0 6 7 10 15 10 8 0 15 -4 15 -10z m910 -14 c0 -7
-6 -19 -14 -25 -11 -9 -12 -6 -8 14 5 26 22 35 22 11z m-1003 -35 c45 -16 93
-37 105 -46 l23 -17 -25 8 c-51 14 -215 83 -200 83 8 1 52 -12 97 -28z m-227
5 c0 -2 -7 -7 -16 -10 -8 -3 -12 -2 -9 4 6 10 25 14 25 6z m-84 -42 c-27 -13
-54 -23 -60 -21 -12 4 71 45 94 46 8 0 -7 -11 -34 -25z m-571 -34 c-3 -5 -12
-10 -18 -10 -7 0 -6 4 3 10 19 12 23 12 15 0z m105 -25 c0 -2 -9 -9 -20 -15
-12 -6 -20 -7 -20 -1 0 5 8 12 18 14 9 3 18 5 20 6 1 0 2 -1 2 -4z m-215 -106
c-22 -9 -53 -19 -70 -22 -29 -6 -29 -6 -5 4 14 6 41 19 60 29 19 10 39 16 44
12 6 -3 -7 -13 -29 -23z m-6730 -29 c3 -6 -1 -7 -9 -4 -18 7 -21 14 -7 14 6 0
13 -4 16 -10z m7442 4 c-3 -3 -12 -4 -19 -1 -8 3 -5 6 6 6 11 1 17 -2 13 -5z
m-324 -11 c-7 -2 -19 -2 -25 0 -7 3 -2 5 12 5 14 0 19 -2 13 -5z m-102 -34
c-35 -16 -66 -27 -68 -25 -6 6 98 54 117 55 8 0 -14 -13 -49 -30z m-612 -4
c-12 -12 -139 -54 -139 -46 0 5 26 18 58 29 55 20 90 27 81 17z m-202 -21 c-3
-3 -12 -4 -19 -1 -8 3 -5 6 6 6 11 1 17 -2 13 -5z m-443 -36 c76 -44 65 -46
-15 -3 -35 19 -59 35 -52 35 6 0 36 -14 67 -32z m1921 12 c-3 -5 -12 -10 -18
-10 -7 0 -6 4 3 10 19 12 23 12 15 0z m-778 -40 c14 -11 20 -20 14 -20 -19 0
-51 19 -51 30 0 15 9 12 37 -10z m723 15 c0 -4 -206 -105 -215 -105 -1 0 -58
-26 -126 -59 -68 -32 -284 -134 -479 -226 -195 -92 -407 -192 -470 -222 -116
-54 -170 -94 -170 -122 0 -37 39 -79 92 -100 29 -11 47 -20 40 -20 -24 -1 -87
30 -114 56 -19 18 -28 37 -28 59 0 55 55 90 360 227 80 36 213 98 295 137 295
142 397 190 400 190 3 0 253 118 350 165 51 24 65 29 65 20z m-1563 -36 c-32
-17 -64 -28 -70 -26 -7 2 2 10 18 17 17 7 44 18 60 25 56 25 50 14 -8 -16z
m654 -35 c-63 -30 -116 -52 -119 -49 -3 2 26 18 64 35 38 16 87 39 109 49 22
11 45 20 50 20 6 -1 -41 -25 -104 -55z m-851 30 l25 -15 -25 7 c-14 3 -29 10
-34 15 -16 14 6 10 34 -7z m680 -9 c0 -2 -10 -9 -22 -15 -22 -11 -22 -10 -4 4
21 17 26 19 26 11z m1413 -58 c56 -24 144 -61 194 -82 51 -21 98 -44 104 -51
17 -20 -14 -62 -58 -81 -41 -17 -76 -12 -159 19 -71 27 -64 34 9 8 90 -32 167
-24 195 20 10 16 7 21 -21 38 -18 11 -59 30 -92 42 -33 13 -103 41 -155 63
-52 22 -115 46 -140 53 -43 12 -44 13 -12 13 18 1 79 -19 135 -42z m-1863 -33
c0 -2 -9 0 -20 6 -11 6 -20 13 -20 16 0 2 9 0 20 -6 11 -6 20 -13 20 -16z
m939 22 c-2 -2 -15 -9 -29 -15 -24 -11 -24 -11 -6 3 16 13 49 24 35 12z m-369
-26 c13 -8 13 -10 -2 -10 -9 0 -20 5 -23 10 -8 13 5 13 25 0z m-505 -16 c20
-8 35 -18 32 -20 -3 -3 -25 3 -49 14 -51 24 -37 29 17 6z m245 11 c0 -7 -72
-41 -105 -49 -42 -10 -24 4 38 31 53 23 67 27 67 18z m549 -9 c-14 -13 -70
-36 -64 -26 4 6 17 15 29 20 22 9 42 13 35 6z m989 -93 c19 -8 32 -16 30 -19
-3 -2 -29 7 -59 21 -55 26 -34 24 29 -2z m-1288 -48 c-25 -13 -52 -24 -60 -24
-8 0 8 11 35 25 65 31 84 30 25 -1z m-147 -5 c26 -8 47 -17 47 -21 0 -9 -42 3
-90 25 -39 18 -27 17 43 -4z m-609 -96 c132 -65 113 -65 -29 0 -55 25 -109 46
-121 46 -12 0 -70 -23 -130 -51 -292 -137 -287 -136 -417 -123 -130 12 -146 8
-311 -79 l-28 -15 23 -13 c13 -6 26 -15 29 -19 3 -3 42 -24 88 -45 45 -21 80
-40 78 -43 -3 -2 -62 24 -131 58 -103 51 -124 65 -113 75 23 21 198 97 236
102 21 3 78 0 128 -6 113 -14 136 -8 345 93 85 41 163 76 174 79 33 8 62 -1
179 -59z m2016 13 c41 -19 127 -55 191 -80 256 -100 319 -149 319 -250 0 -37
-6 -53 -30 -81 -30 -34 -136 -101 -233 -147 -26 -13 -45 -29 -43 -35 3 -7 -3
-10 -15 -7 -10 3 -25 1 -32 -5 -10 -8 -193 -105 -907 -482 -80 -42 -213 -109
-297 -150 -114 -56 -151 -79 -149 -91 2 -9 0 -23 -5 -30 -6 -10 -9 -8 -9 8 0
27 -35 53 -73 53 -16 0 -26 4 -22 10 8 13 58 13 72 -1 7 -7 18 -4 35 13 23 21
186 108 648 346 80 41 150 78 155 82 6 4 78 42 160 85 83 43 197 103 255 135
58 31 160 85 227 120 128 65 199 117 213 156 12 30 -3 80 -32 112 -27 29 -130
82 -248 128 -177 69 -314 131 -318 144 -7 21 53 7 138 -33z m-2120 -57 c8 -5
12 -11 10 -13 -8 -8 -70 5 -70 14 0 12 41 11 60 -1z m216 -35 c-11 -8 -24 -15
-30 -15 -5 0 -1 7 10 15 10 8 24 14 29 14 6 0 1 -6 -9 -14z m-136 -62 c-255
-121 -342 -168 -397 -213 -44 -35 -79 -54 -120 -65 -68 -18 -76 -18 -68 -5 3
6 14 10 23 10 44 0 97 25 149 71 50 44 176 113 243 134 13 4 64 27 114 51 49
24 94 44 100 43 6 0 -14 -12 -44 -26z m2853 -205 c-101 -114 -225 -211 -368
-288 -80 -42 -41 -10 83 69 55 35 142 103 193 152 52 48 98 88 103 89 5 0 0
-10 -11 -22z m-4024 -12 c-2 -2 -88 -43 -192 -90 -103 -47 -210 -97 -237 -111
-28 -14 -50 -21 -50 -15 0 11 76 51 214 112 50 22 129 58 176 78 73 33 105 42
89 26z m571 4 c13 -9 13 -10 0 -10 -8 0 -22 5 -30 10 -13 9 -13 10 0 10 8 0
22 -5 30 -10z m-115 -20 c3 -6 -1 -7 -9 -4 -18 7 -21 14 -7 14 6 0 13 -4 16
-10z m45 -20 c8 -5 11 -10 5 -10 -5 0 -17 5 -25 10 -8 5 -10 10 -5 10 6 0 17
-5 25 -10z m1147 -66 c-3 -3 -12 -4 -19 -1 -8 3 -5 6 6 6 11 1 17 -2 13 -5z
m108 -4 c42 -11 1 -11 -50 -1 -34 7 -35 9 -10 9 17 0 44 -4 60 -8z m810 -20
c3 -5 1 -10 -4 -10 -6 0 -11 5 -11 10 0 6 2 10 4 10 3 0 8 -4 11 -10z m-2604
-50 c29 -16 24 -31 -7 -20 -14 6 -37 10 -50 10 -14 0 -22 4 -19 10 8 13 51 13
76 0z m-96 -20 c3 -5 15 -10 26 -10 11 0 18 -4 15 -9 -5 -8 -27 -7 -64 5 -7 2
-10 8 -7 14 8 13 22 13 30 0z m-3975 -25 c269 -52 523 -154 802 -323 111 -67
218 -108 423 -162 110 -29 233 -66 273 -81 151 -60 343 -169 389 -222 10 -11
-3 -5 -29 15 -68 51 -308 171 -413 206 -49 17 -158 48 -240 70 -197 53 -262
78 -389 152 -403 232 -709 333 -1089 360 l-122 9 155 -4 c85 -2 193 -11 240
-20z m3937 -1 c1 -5 -45 -31 -104 -59 -58 -27 -119 -63 -135 -79 -31 -31 -46
-30 -29 2 16 30 72 68 152 103 41 18 78 36 84 41 11 10 28 6 32 -8z m-477 -37
c-58 -54 -70 -62 -70 -45 0 14 76 77 95 78 5 0 -6 -15 -25 -33z m3270 15 c0
-4 -15 -16 -32 -26 l-33 -18 30 26 c34 28 35 29 35 18z m-1890 -42 c142 -60
291 -142 311 -170 37 -51 35 -76 -7 -118 -31 -30 -72 -51 -194 -99 -259 -102
-342 -125 -440 -126 -177 -1 -336 83 -355 187 -10 50 23 117 77 156 47 35 241
131 359 180 99 40 135 38 249 -10z m-2377 -59 c317 -151 679 -335 665 -338 -9
-2 -157 67 -330 153 -172 87 -331 166 -353 177 -46 23 -83 47 -72 47 5 0 45
-18 90 -39z m4136 25 c-2 -2 -15 -9 -29 -15 -24 -11 -24 -11 -6 3 16 13 49 24
35 12z m-189 -96 c-30 -16 -59 -29 -65 -29 -5 0 15 13 45 29 30 16 60 29 65
29 6 0 -15 -13 -45 -29z m-100 -50 c-8 -5 -19 -10 -25 -10 -5 0 -3 5 5 10 8 5
20 10 25 10 6 0 3 -5 -5 -10z m-2945 -527 c134 -70 243 -128 241 -131 -4 -3
-492 243 -505 254 -2 2 1 4 7 4 7 0 122 -57 257 -127z m2645 43 c0 -2 -46 -34
-102 -72 -137 -90 -206 -142 -311 -237 -48 -44 -90 -77 -93 -74 -6 6 181 181
248 232 52 39 238 155 251 155 4 0 7 -2 7 -4z m-4055 -116 c10 -11 16 -20 13
-20 -3 0 -13 9 -23 20 -10 11 -16 20 -13 20 3 0 13 -9 23 -20z m1690 -78 c-3
-3 -11 0 -18 7 -9 10 -8 11 6 5 10 -3 15 -9 12 -12z"/>
<path d="M4070 5586 c0 -8 21 -22 48 -32 26 -9 78 -30 116 -46 67 -28 96 -30
96 -8 0 6 12 29 26 51 14 23 23 43 21 46 -3 2 -23 -5 -46 -16 -50 -26 -77 -26
-143 -1 -63 24 -118 26 -118 6z"/>
<path d="M4365 5500 c-3 -11 -14 -20 -23 -20 -32 -1 83 -54 263 -121 99 -37
202 -75 228 -85 l49 -19 24 29 c14 15 24 35 22 43 -2 9 -30 25 -63 38 -33 12
-105 39 -159 59 -54 21 -124 42 -155 46 -65 9 -142 30 -155 42 -16 13 -24 10
-31 -12z m68 -27 c26 -14 28 -18 14 -21 -28 -6 -64 6 -71 23 -7 20 17 19 57
-2z"/>
<path d="M7806 3948 c-23 -72 -22 -74 93 -113 136 -46 381 -147 381 -157 0
-12 -16 -7 -205 67 -247 96 -293 111 -311 100 -27 -17 -21 -28 26 -46 25 -10
122 -48 215 -84 94 -37 243 -96 332 -131 l162 -65 38 24 c21 14 49 36 62 51
14 14 30 26 37 26 7 0 15 4 19 9 3 5 -27 21 -67 34 -63 21 -572 215 -726 276
-39 16 -54 18 -56 9z m616 -286 c-19 -6 -64 7 -57 18 3 5 19 4 37 -2 18 -6 27
-13 20 -16z m138 -17 c24 -13 24 -14 5 -20 -11 -4 -28 -11 -38 -16 -11 -6 -25
-6 -38 2 -20 10 -20 11 -3 30 20 22 40 24 74 4z"/>
<path d="M8634 3594 c-18 -14 -18 -15 4 -4 12 6 22 13 22 15 0 8 -5 6 -26 -11z"/>
<path d="M8746 3575 c-14 -22 -22 -25 -49 -20 -25 5 -39 1 -60 -15 -19 -15
-41 -22 -75 -22 -43 0 -45 -1 -28 -14 11 -8 25 -14 32 -14 6 0 34 -9 62 -21
l50 -21 54 35 c29 19 64 45 77 58 l24 22 -23 19 c-30 24 -45 23 -64 -7z"/>
<path d="M2814 8269 c-136 -13 -241 -49 -270 -94 -17 -26 -17 -27 16 -55 46
-40 136 -62 265 -68 151 -6 313 34 385 95 40 33 38 49 -10 73 -87 44 -236 63
-386 49z"/>
<path d="M2827 6174 c-14 -14 -7 -65 9 -71 26 -10 49 11 49 43 0 24 -5 30 -25
32 -14 2 -29 0 -33 -4z"/>
<path d="M5726 6035 c-12 -13 -38 -63 -58 -112 -41 -99 -168 -398 -260 -607
-33 -77 -61 -153 -62 -170 -1 -28 3 -32 54 -49 162 -56 478 -179 585 -228 55
-25 172 -71 184 -72 8 -1 15 3 17 8 3 10 -54 35 -296 129 -168 66 -434 172
-479 192 -40 18 -39 23 18 152 88 197 181 416 276 645 15 37 31 67 35 67 3 0
26 -10 51 -21 24 -12 87 -37 139 -55 52 -18 185 -66 295 -107 110 -40 230 -84
267 -96 36 -12 71 -28 77 -34 11 -15 -60 -193 -192 -479 -47 -102 -102 -228
-122 -280 -20 -51 -41 -106 -47 -121 -11 -29 -4 -48 11 -31 16 15 52 115 46
125 -4 5 -1 9 5 9 6 0 8 5 5 10 -3 6 -1 10 4 10 6 0 11 8 11 18 0 10 4 22 8
27 5 6 16 35 26 66 9 30 26 63 37 72 11 10 17 22 14 27 -3 6 -2 10 2 10 5 0
17 19 27 43 10 23 39 87 63 142 25 55 51 114 58 130 8 17 36 79 64 139 28 60
51 117 51 128 0 21 -43 42 -168 82 -43 13 -144 49 -223 79 -169 64 -350 129
-439 156 l-62 20 -22 -24z m489 -174 c10 -17 -12 -21 -25 -6 -10 12 -10 15 3
15 9 0 18 -4 22 -9z"/>
<path d="M5680 5776 c-40 -94 -83 -193 -96 -221 -44 -95 -136 -310 -151 -353
-13 -37 -13 -46 -2 -57 12 -10 162 -71 579 -235 53 -21 110 -41 128 -45 17 -3
34 -11 37 -16 9 -13 25 -11 25 3 0 13 55 146 100 243 170 366 256 575 236 575
-2 0 -140 50 -307 111 -278 102 -378 137 -450 159 -27 8 -27 6 -99 -164z m130
109 c7 -8 28 -15 47 -15 26 0 36 -5 43 -22 7 -18 9 -19 9 -5 1 13 5 15 19 8 9
-5 25 -12 35 -15 9 -3 17 -12 17 -21 0 -19 -14 -19 -34 1 -9 8 -20 13 -25 10
-11 -7 -62 14 -73 29 -5 6 -8 4 -8 -5 -1 -13 -3 -12 -13 2 -9 11 -22 14 -40
11 -19 -4 -27 -1 -27 9 0 30 29 38 50 13z m-19 -141 c28 -18 38 -29 31 -36 -7
-7 -22 -1 -46 18 -32 26 -45 44 -31 44 3 0 24 -12 46 -26z m474 -86 c82 -33
153 -62 157 -66 4 -4 -35 -92 -86 -197 -91 -185 -166 -305 -192 -305 -19 0
-369 142 -459 186 -41 20 -75 41 -75 46 0 6 10 7 23 3 12 -4 30 -7 40 -8 10
-1 16 -6 13 -13 -5 -14 39 -35 164 -81 52 -19 130 -50 173 -69 93 -40 116 -42
146 -10 l23 25 -67 68 c-37 37 -80 87 -96 111 -27 38 -49 54 -49 34 0 -15
-118 -72 -149 -72 -39 0 -87 24 -101 49 -5 11 -10 51 -10 90 0 64 3 73 31 106
22 25 39 35 60 35 38 0 37 -13 -3 -25 -48 -15 -73 -56 -73 -120 0 -42 5 -59
21 -76 30 -30 105 -37 140 -14 25 16 26 21 20 69 -3 28 -9 63 -12 77 -9 41 46
99 95 99 86 0 117 -113 50 -180 l-29 -29 59 -73 c59 -74 104 -118 120 -118 15
0 195 370 185 380 -5 5 -67 32 -139 61 -106 43 -145 53 -212 58 -45 3 -87 11
-94 18 -9 9 9 11 82 6 83 -6 110 -13 244 -65z m-438 -12 c8 -8 -41 -8 -61 0
-9 3 -16 10 -16 14 0 8 67 -4 77 -14z m-147 -150 c0 -30 3 -63 6 -73 6 -17 5
-17 -10 -2 -10 9 -19 38 -23 72 -5 49 -3 57 11 57 13 0 16 -11 16 -54z m-45
-281 c83 -22 261 -88 249 -92 -5 -2 -79 19 -164 47 -85 27 -161 50 -167 50 -7
0 -13 5 -13 11 0 6 8 8 18 5 9 -3 44 -12 77 -21z"/>
<path d="M5950 5553 c-19 -24 -21 -36 -16 -88 7 -70 18 -85 39 -55 9 13 20 19
27 15 21 -13 60 35 60 75 0 77 -66 108 -110 53z"/>
<path d="M2952 6034 c-15 -27 -3 -54 24 -54 28 0 48 37 32 58 -15 17 -45 15
-56 -4z"/>
<path d="M3072 6048 c2 -6 12 -16 21 -22 13 -8 20 -7 27 4 12 20 3 30 -26 30
-15 0 -24 -5 -22 -12z"/>
<path d="M3524 4945 c-12 -8 -43 -23 -70 -34 -56 -22 -59 -20 78 -61 97 -29
117 -48 63 -61 -16 -4 -67 -27 -113 -52 l-84 -44 34 -12 c18 -7 51 -21 73 -32
51 -24 58 -24 100 4 36 23 41 37 48 152 2 28 10 64 19 81 20 36 14 47 -31 62
-46 16 -92 15 -117 -3z"/>
<path d="M3322 4867 c-6 -7 -44 -26 -82 -41 -39 -16 -70 -30 -68 -32 2 -2 50
-19 105 -39 112 -38 102 -39 216 12 31 14 57 31 57 37 0 6 -37 24 -83 39 -110
38 -131 42 -145 24z"/>
<path d="M4030 4511 c0 -5 9 -7 20 -4 11 3 20 7 20 9 0 2 -9 4 -20 4 -11 0
-20 -4 -20 -9z"/>
<path d="M5570 1857 c-144 -60 -295 -133 -342 -166 -61 -42 -78 -70 -78 -127
0 -81 96 -147 255 -175 84 -14 145 -3 315 58 285 103 380 152 380 198 0 35
-53 72 -214 151 -192 95 -221 100 -316 61z m210 -152 c63 -30 106 -55 95 -54
-20 0 -238 108 -220 108 6 0 62 -24 125 -54z m-222 -43 c59 -38 72 -56 15 -21
-21 12 -50 29 -65 38 -16 9 -28 20 -28 24 0 4 6 4 13 0 6 -4 36 -23 65 -41z
m47 18 c3 -6 -1 -7 -9 -4 -18 7 -21 14 -7 14 6 0 13 -4 16 -10z m-235 -86 c0
-2 -9 0 -20 6 -11 6 -20 13 -20 16 0 2 9 0 20 -6 11 -6 20 -13 20 -16z m300 1
c14 -8 21 -14 15 -14 -5 0 -21 6 -35 14 -14 8 -20 14 -15 14 6 0 21 -6 35 -14z
m-160 -15 c12 -8 11 -10 -7 -10 -13 0 -23 5 -23 10 0 13 11 13 30 0z m40 -20
c0 -5 -5 -10 -11 -10 -5 0 -7 5 -4 10 3 6 8 10 11 10 2 0 4 -4 4 -10z"/>
</g>
</svg>
